Compagnon-Italique.ufo
<glyph name="numbersign" format="1">
  <advance width="600"/>
  <unicode hex="0023"/>
  <outline>
    <contour>
      <point x="146" y="10" type="line"/>
      <point x="196" y="204" type="line"/>
      <point x="70" y="204" type="line"/>
      <point x="70" y="234" type="line"/>
      <point x="205" y="234" type="line"/>
      <point x="241" y="373" type="line"/>
      <point x="110" y="373" type="line"/>
      <point x="110" y="403" type="line"/>
      <point x="250" y="403" type="line"/>
      <point x="296" y="581" type="line"/>
      <point x="326" y="581" type="line"/>
      <point x="279" y="403" type="line"/>
      <point x="427" y="403" type="line"/>
      <point x="473" y="581" type="line"/>
      <point x="504" y="581" type="line"/>
      <point x="457" y="403" type="line"/>
      <point x="571" y="403" type="line"/>
      <point x="571" y="373" type="line"/>
      <point x="449" y="373" type="line"/>
      <point x="412" y="234" type="line"/>
      <point x="530" y="234" type="line"/>
      <point x="530" y="204" type="line"/>
      <point x="404" y="204" type="line"/>
      <point x="353" y="10" type="line"/>
      <point x="323" y="10" type="line"/>
      <point x="373" y="204" type="line"/>
      <point x="226" y="204" type="line"/>
      <point x="175" y="10" type="line"/>
    </contour>
    <contour>
      <point x="418" y="373" type="line"/>
      <point x="271" y="373" type="line"/>
      <point x="234" y="234" type="line"/>
      <point x="382" y="234" type="line"/>
    </contour>
  </outline>
</glyph>
<glyph name="ampersand" format="1">
  <advance width="600"/>
  <unicode hex="0026"/>
  <outline>
    <contour>
      <point x="397" y="250" type="curve"/>
      <point x="418.8" y="265.2" type="line"/>
      <point x="419" y="264"/>
      <point x="467" y="231"/>
      <point x="466.8" y="141.6" type="curve" smooth="yes"/>
      <point x="467" y="18"/>
      <point x="347" y="-14"/>
      <point x="238" y="-14" type="curve" smooth="yes"/>
      <point x="134" y="-14"/>
      <point x="21" y="64"/>
      <point x="21" y="181" type="curve" smooth="yes"/>
      <point x="21" y="277"/>
      <point x="106" y="349"/>
      <point x="228" y="372" type="curve"/>
      <point x="152" y="383"/>
      <point x="118" y="425"/>
      <point x="118" y="463" type="curve" smooth="yes"/>
      <point x="118" y="553"/>
      <point x="206" y="604"/>
      <point x="292" y="604" type="curve" smooth="yes"/>
      <point x="359" y="604"/>
      <point x="428" y="577"/>
      <point x="430.8" y="529.2" type="curve" smooth="yes"/>
      <point x="433" y="494"/>
      <point x="404" y="468"/>
      <point x="375.6" y="468" type="curve" smooth="yes"/>
      <point x="340" y="468"/>
      <point x="317" y="498"/>
      <point x="316.8" y="523.2" type="curve" smooth="yes"/>
      <point x="316" y="542"/>
      <point x="322" y="553"/>
      <point x="336" y="568.8" type="curve"/>
      <point x="324" y="571"/>
      <point x="310" y="573"/>
      <point x="294" y="573.6" type="curve" smooth="yes"/>
      <point x="229" y="573"/>
      <point x="148" y="537"/>
      <point x="147.6" y="465.6" type="curve" smooth="yes"/>
      <point x="148" y="434"/>
      <point x="182" y="409"/>
      <point x="234" y="397" type="curve" smooth="yes"/>
      <point x="276" y="387"/>
      <point x="323" y="387"/>
      <point x="346" y="387" type="curve"/>
      <point x="345.6" y="357.6" type="line"/>
      <point x="231" y="357"/>
      <point x="51" y="317"/>
      <point x="50.4" y="180" type="curve" smooth="yes"/>
      <point x="51" y="80"/>
      <point x="155" y="16"/>
      <point x="238.8" y="15.6" type="curve" smooth="yes"/>
      <point x="333" y="16"/>
      <point x="438" y="37"/>
      <point x="436.8" y="145.2" type="curve" smooth="yes"/>
      <point x="436" y="194"/>
      <point x="426" y="209"/>
    </contour>
    <contour>
      <point x="533" y="455" type="line"/>
      <point x="566" y="447"/>
      <point x="601" y="408"/>
      <point x="598.8" y="368.4" type="curve" smooth="yes"/>
      <point x="599" y="319"/>
      <point x="578" y="274"/>
      <point x="507.6" y="264" type="curve" smooth="yes"/>
      <point x="344.4" y="240" type="line" smooth="yes"/>
      <point x="295" y="233"/>
      <point x="241" y="217"/>
      <point x="235.2" y="168" type="curve"/>
      <point x="210" y="183" type="line"/>
      <point x="215" y="238"/>
      <point x="284" y="262"/>
      <point x="332" y="269" type="curve" smooth="yes"/>
      <point x="506" y="294" type="line" smooth="yes"/>
      <point x="556" y="301"/>
      <point x="569" y="336"/>
      <point x="569" y="366" type="curve" smooth="yes"/>
      <point x="569" y="403"/>
      <point x="547" y="419"/>
      <point x="514" y="431" type="curve"/>
    </contour>
  </outline>
</glyph>
<glyph name="asterisk" format="1">
  <advance width="600"/>
  <unicode hex="002A"/>
  <outline>
    <contour>
      <point x="250.8" y="308.4" type="line"/>
      <point x="278.4" y="295.2" type="line"/>
      <point x="334.8" y="410.4" type="line"/>
      <point x="403.2" y="304.8" type="line"/>
      <point x="428.4" y="321.6" type="line"/>
      <point x="360" y="424.8" type="line"/>
      <point x="487.2" y="433.2" type="line"/>
      <point x="486" y="462" type="line"/>
      <point x="357.6" y="453.6" type="line"/>
      <point x="415.2" y="570" type="line"/>
      <point x="388.8" y="583.2" type="line"/>
      <point x="331.2" y="470.4" type="line"/>
      <point x="262.8" y="573.6" type="line"/>
      <point x="237.6" y="558" type="line"/>
      <point x="306" y="452.4" type="line"/>
      <point x="178.8" y="445.2" type="line"/>
      <point x="181.2" y="416.4" type="line"/>
      <point x="308.4" y="423.6" type="line"/>
    </contour>
  </outline>
</glyph>
<glyph name="period" format="1">
  <advance width="600"/>
  <unicode hex="002E"/>
  <note>
    period
  </note>
  <outline>
    <contour>
      <point x="262.8" y="-12" type="curve" smooth="yes"/>
      <point x="300" y="-12"/>
      <point x="330" y="18"/>
      <point x="330" y="54" type="curve" smooth="yes"/>
      <point x="330" y="91"/>
      <point x="300" y="121"/>
      <point x="262.8" y="121.2" type="curve" smooth="yes"/>
      <point x="226" y="121"/>
      <point x="197" y="91"/>
      <point x="196.8" y="54" type="curve" smooth="yes"/>
      <point x="197" y="18"/>
      <point x="226" y="-12"/>
    </contour>
  </outline>
</glyph>
<glyph name="one" format="1">
  <advance width="600"/>
  <unicode hex="0031"/>
  <outline>
    <contour>
      <point x="292.2" y="30" type="line"/>
      <point x="415.8" y="590.4" type="line"/>
      <point x="359.4" y="590.4" type="line"/>
      <point x="336" y="521.7"/>
      <point x="306" y="482.7"/>
      <point x="256.2" y="434.4" type="curve" smooth="yes"/>
      <point x="203.1" y="382.8"/>
      <point x="135.3" y="342.9"/>
      <point x="60.6" y="337.2" type="curve"/>
      <point x="72.6" y="312" type="line"/>
      <point x="140.7" y="310.8"/>
      <point x="216.6" y="357.6"/>
      <point x="276.6" y="413.1" type="curve" smooth="yes"/>
      <point x="301.2" y="435.9"/>
      <point x="365.1" y="513.3"/>
      <point x="377.4" y="550.8" type="curve"/>
      <point x="261" y="30" type="line"/>
      <point x="27" y="30" type="line"/>
      <point x="19.8" y="0" type="line"/>
      <point x="485.4" y="0" type="line"/>
      <point x="492.6" y="30" type="line"/>
    </contour>
  </outline>
</glyph>
<glyph name="seven" format="1">
  <advance width="600"/>
  <unicode hex="0037"/>
  <outline>
    <contour>
      <point x="201.6" y="560.4" type="line"/>
      <point x="516" y="560.4" type="line"/>
      <point x="222" y="1.2" type="line"/>
      <point x="247.2" y="-13.2" type="line"/>
      <point x="552" y="558" type="line"/>
      <point x="552" y="590.4" type="line"/>
      <point x="176.4" y="590.4" type="line"/>
      <point x="134.7" y="391.2" type="line"/>
      <point x="165.9" y="391.2" type="line"/>
    </contour>
  </outline>
</glyph>
<glyph name="eight" format="1">
  <advance width="600"/>
  <unicode hex="0038"/>
  <outline>
    <contour>
      <point x="529.2" y="444" type="curve" smooth="yes"/>
      <point x="556.8" y="524.4"/>
      <point x="505.2" y="602.4"/>
      <point x="376.8" y="602.4" type="curve" smooth="yes"/>
      <point x="255.6" y="603.6"/>
      <point x="156" y="528"/>
      <point x="151.2" y="444" type="curve" smooth="yes"/>
      <point x="150" y="405.6"/>
      <point x="171.6" y="364.8"/>
      <point x="218.4" y="331.2" type="curve"/>
      <point x="130.8" y="291.6"/>
      <point x="79.2" y="228"/>
      <point x="63.6" y="168" type="curve" smooth="yes"/>
      <point x="39.6" y="75.6"/>
      <point x="99.6" y="-14.4"/>
      <point x="243.6" y="-14.4" type="curve" smooth="yes"/>
      <point x="373.2" y="-14.4"/>
      <point x="475" y="70"/>
      <point x="498" y="160.8" type="curve" smooth="yes"/>
      <point x="516" y="222"/>
      <point x="501.6" y="285.6"/>
      <point x="426" y="330" type="curve"/>
      <point x="483.6" y="362.4"/>
      <point x="516" y="404.4"/>
    </contour>
    <contour>
      <point x="318" y="342" type="curve" smooth="yes"/>
      <point x="222" y="342"/>
      <point x="177.6" y="391.2"/>
      <point x="181.2" y="444" type="curve" smooth="yes"/>
      <point x="186" y="506.4"/>
      <point x="270" y="573.6"/>
      <point x="374.4" y="572.4" type="curve" smooth="yes"/>
      <point x="492" y="571.2"/>
      <point x="524.4" y="507.6"/>
      <point x="496.8" y="444" type="curve" smooth="yes"/>
      <point x="474" y="391.2"/>
      <point x="409.2" y="342"/>
    </contour>
    <contour>
      <point x="468" y="162" type="curve" smooth="yes"/>
      <point x="450" y="86"/>
      <point x="344" y="15"/>
      <point x="252" y="15.6" type="curve" smooth="yes"/>
      <point x="124" y="16"/>
      <point x="77" y="92"/>
      <point x="94.8" y="166.8" type="curve" smooth="yes"/>
      <point x="109" y="227"/>
      <point x="199" y="319"/>
      <point x="314.4" y="316.8" type="curve"/>
      <point x="439.2" y="320.4"/>
      <point x="486" y="240"/>
    </contour>
  </outline>
</glyph>
<glyph name="equal" format="1">
  <advance width="600"/>
  <unicode hex="003D"/>
  <note>
    equal
  </note>
  <outline>
    <contour>
      <point x="69" y="326" type="line"/>
      <point x="531" y="326" type="line"/>
      <point x="531" y="296" type="line"/>
      <point x="69" y="296" type="line"/>
    </contour>
    <contour>
      <point x="69" y="134" type="line"/>
      <point x="531" y="134" type="line"/>
      <point x="531" y="104" type="line"/>
      <point x="69" y="104" type="line"/>
    </contour>
  </outline>
</glyph>
<glyph name="question" format="1">
  <advance width="600"/>
  <unicode hex="003F"/>
  <outline>
    <contour>
      <point x="291" y="146.4" type="line"/>
      <point x="313.2" y="227.1"/>
      <point x="378" y="276.9"/>
      <point x="431.7" y="305.1" type="curve" smooth="yes"/>
      <point x="504.3" y="343.2"/>
      <point x="525.9" y="398.4"/>
      <point x="525.6" y="447.6" type="curve" smooth="yes"/>
      <point x="525" y="533.1"/>
      <point x="450" y="600.9"/>
      <point x="350.4" y="602.4" type="curve" smooth="yes"/>
      <point x="240" y="604.2"/>
      <point x="129.9" y="531"/>
      <point x="130.8" y="436.8" type="curve" smooth="yes"/>
      <point x="131.1" y="407.1"/>
      <point x="149.1" y="384"/>
      <point x="177.6" y="384" type="curve" smooth="yes"/>
      <point x="192.9" y="384"/>
      <point x="216.3" y="395.4"/>
      <point x="216.3" y="417.9" type="curve" smooth="yes"/>
      <point x="216.3" y="456.3"/>
      <point x="189.6" y="468.6"/>
      <point x="164.4" y="459.6" type="curve"/>
      <point x="177" y="519"/>
      <point x="255.6" y="571.8"/>
      <point x="350.4" y="572.4" type="curve" smooth="yes"/>
      <point x="429" y="573"/>
      <point x="495.3" y="521.1"/>
      <point x="495.6" y="447.6" type="curve" smooth="yes"/>
      <point x="495.9" y="398.1"/>
      <point x="472.8" y="360.9"/>
      <point x="414.6" y="328.5" type="curve" smooth="yes"/>
      <point x="348.9" y="291.9"/>
      <point x="288.3" y="246.3"/>
      <point x="259.8" y="146.4" type="curve"/>
    </contour>
    <contour>
      <point x="298.8" y="2.4" type="curve"/>
      <point x="309" y="12"/>
      <point x="314.1" y="24"/>
      <point x="314.4" y="37.2" type="curve" smooth="yes"/>
      <point x="315" y="63.9"/>
      <point x="291" y="87.9"/>
      <point x="262.8" y="88.8" type="curve" smooth="yes"/>
      <point x="234.9" y="89.7"/>
      <point x="210.9" y="63.9"/>
      <point x="211.2" y="37.2" type="curve" smooth="yes"/>
      <point x="211.5" y="9.9"/>
      <point x="234.9" y="-14.4"/>
      <point x="262.8" y="-13.2" type="curve" smooth="yes"/>
      <point x="276.9" y="-12.6"/>
      <point x="288.9" y="-9"/>
    </contour>
  </outline>
</glyph>
<glyph name="B" format="1">
  <advance width="600"/>
  <unicode hex="0042"/>
  <outline>
    <contour>
      <point x="344.4" y="294" type="line" smooth="yes"/>
      <point x="421" y="294"/>
      <point x="514" y="273"/>
      <point x="511.2" y="192" type="curve" smooth="yes"/>
      <point x="507" y="78"/>
      <point x="448" y="30"/>
      <point x="291.6" y="30" type="curve" smooth="yes"/>
      <point x="126" y="30" type="line"/>
      <point x="182.4" y="294" type="line"/>
    </contour>
    <contour>
      <point x="189.6" y="322.8" type="line"/>
      <point x="237.6" y="561.6" type="line"/>
      <point x="380.4" y="561.6" type="line" smooth="yes"/>
      <point x="473" y="562"/>
      <point x="542" y="537"/>
      <point x="540" y="460.8" type="curve" smooth="yes"/>
      <point x="538" y="375"/>
      <point x="452" y="323"/>
      <point x="338.4" y="322.8" type="curve" smooth="yes"/>
    </contour>
    <contour>
      <point x="429.6" y="309.6" type="curve"/>
      <point x="512" y="323"/>
      <point x="573" y="385"/>
      <point x="570" y="460.8" type="curve" smooth="yes"/>
      <point x="566" y="551"/>
      <point x="500" y="590"/>
      <point x="388.8" y="590.4" type="curve" smooth="yes"/>
      <point x="212.4" y="590.4" type="line"/>
      <point x="206.4" y="562.8" type="line"/>
      <point x="207.6" y="562.8" type="line"/>
      <point x="94.8" y="30" type="line"/>
      <point x="32.4" y="30" type="line"/>
      <point x="26.4" y="0" type="line"/>
      <point x="288" y="0" type="line" smooth="yes"/>
      <point x="468" y="0"/>
      <point x="535" y="60"/>
      <point x="541.2" y="193.2" type="curve" smooth="yes"/>
      <point x="544" y="255"/>
      <point x="505" y="295"/>
    </contour>
    <component base="Swash" xOffset="-163"/>
  </outline>
</glyph>
<glyph name="C" format="1">
  <advance width="600"/>
  <unicode hex="0043"/>
  <outline>
    <contour>
      <point x="524.4" y="152.4" type="curve"/>
      <point x="498" y="166.8" type="line"/>
      <point x="460" y="91"/>
      <point x="373" y="17"/>
      <point x="284.4" y="16.8" type="curve" smooth="yes"/>
      <point x="167" y="17"/>
      <point x="95" y="93"/>
      <point x="93.6" y="206.4" type="curve" smooth="yes"/>
      <point x="96" y="386"/>
      <point x="220" y="573"/>
      <point x="380.4" y="572.4" type="curve" smooth="yes"/>
      <point x="488" y="572"/>
      <point x="523" y="513"/>
      <point x="518.4" y="458.4" type="curve"/>
      <point x="515" y="466"/>
      <point x="500" y="473"/>
      <point x="480" y="474" type="curve" smooth="yes"/>
      <point x="453" y="475"/>
      <point x="425" y="448"/>
      <point x="423.6" y="418.8" type="curve" smooth="yes"/>
      <point x="421" y="374"/>
      <point x="459" y="358"/>
      <point x="481.2" y="360" type="curve" smooth="yes"/>
      <point x="521" y="363"/>
      <point x="554" y="402"/>
      <point x="553.2" y="454.8" type="curve" smooth="yes"/>
      <point x="552" y="552"/>
      <point x="480" y="602"/>
      <point x="378" y="602.4" type="curve" smooth="yes"/>
      <point x="203" y="603"/>
      <point x="66" y="406"/>
      <point x="64.8" y="207.6" type="curve" smooth="yes"/>
      <point x="65" y="75"/>
      <point x="152" y="-13"/>
      <point x="282" y="-13.2" type="curve" smooth="yes"/>
      <point x="382" y="-13"/>
      <point x="470" y="57"/>
    </contour>
    <contour>
      <point x="268.8" y="-12" type="move" name="bottom"/>
    </contour>
    <contour>
      <point x="382.8" y="602.4" type="move" name="top"/>
    </contour>
  </outline>
</glyph>
<glyph name="D" format="1">
  <advance width="600"/>
  <unicode hex="0044"/>
  <outline>
    <contour>
      <point x="315.6" y="590.4" type="curve" smooth="yes"/>
      <point x="277.2" y="590.4" type="line"/>
      <point x="247.2" y="590.4" type="line"/>
      <point x="241.2" y="560.4" type="line"/>
      <point x="242.4" y="560.4" type="line"/>
      <point x="130.8" y="30" type="line"/>
      <point x="26.4" y="30" type="line"/>
      <point x="19.2" y="0" type="line"/>
      <point x="295.2" y="0" type="line" smooth="yes"/>
      <point x="643.2" y="0"/>
      <point x="722" y="590"/>
    </contour>
    <contour>
      <point x="294" y="30" type="curve" smooth="yes"/>
      <point x="165.6" y="30" type="line"/>
      <point x="276" y="560.4" type="line"/>
      <point x="314.4" y="560.4" type="line" smooth="yes"/>
      <point x="681" y="560"/>
      <point x="604.8" y="30"/>
    </contour>
    <component base="Swash" xOffset="-153"/>
    <contour>
      <point x="307.2" y="601.2" type="move" name="top"/>
    </contour>
  </outline>
</glyph>
<glyph name="E" format="1">
  <advance width="600"/>
  <unicode hex="0045"/>
  <outline>
    <contour>
      <point x="613.2" y="590.4" type="line"/>
      <point x="207.6" y="590.4" type="line" smooth="yes"/>
      <point x="123" y="590"/>
      <point x="93" y="497"/>
      <point x="97.2" y="468" type="curve"/>
      <point x="127.2" y="468" type="line"/>
      <point x="123" y="484"/>
      <point x="143" y="560"/>
      <point x="207.6" y="560.4" type="curve" smooth="yes"/>
      <point x="272.4" y="560.4" type="line"/>
      <point x="165.6" y="30" type="line"/>
      <point x="73.2" y="30" type="line"/>
      <point x="66" y="0" type="line"/>
      <point x="489.6" y="0" type="line"/>
      <point x="534" y="210" type="line"/>
      <point x="504" y="213.6" type="line"/>
      <point x="464.4" y="30" type="line"/>
      <point x="195.6" y="30" type="line"/>
      <point x="246" y="279.6" type="line"/>
      <point x="406.8" y="279.6" type="line"/>
      <point x="386.4" y="189.6" type="line"/>
      <point x="417.6" y="189.6" type="line"/>
      <point x="460.8" y="380.4" type="line"/>
      <point x="429.6" y="380.4" type="line"/>
      <point x="414" y="309.6" type="line"/>
      <point x="252" y="309.6" type="line"/>
      <point x="302.4" y="560.4" type="line"/>
      <point x="576" y="560.4" type="line"/>
      <point x="538.8" y="380.4" type="line"/>
      <point x="570" y="380.4" type="line"/>
    </contour>
    <contour>
      <point x="391.2" y="602.4" type="move" name="top"/>
    </contour>
  </outline>
</glyph>
<glyph name="G" format="1">
  <advance width="600"/>
  <unicode hex="0047"/>
  <outline>
    <contour>
      <point x="423.6" y="73.2" type="curve"/>
      <point x="433.2" y="117.6" type="line"/>
      <point x="383" y="62"/>
      <point x="302" y="17"/>
      <point x="252" y="16.8" type="curve" smooth="yes"/>
      <point x="134" y="16"/>
      <point x="62" y="93"/>
      <point x="61.2" y="206.4" type="curve" smooth="yes"/>
      <point x="60" y="386"/>
      <point x="220" y="573"/>
      <point x="380.4" y="572.4" type="curve" smooth="yes"/>
      <point x="488" y="572"/>
      <point x="516" y="533"/>
      <point x="518.4" y="469.2" type="curve"/>
      <point x="515" y="477"/>
      <point x="500" y="484"/>
      <point x="480" y="484.8" type="curve" smooth="yes"/>
      <point x="453" y="486"/>
      <point x="432" y="463"/>
      <point x="432" y="433.2" type="curve" smooth="yes"/>
      <point x="432" y="407"/>
      <point x="458" y="384"/>
      <point x="481.2" y="385.2" type="curve" smooth="yes"/>
      <point x="522" y="387"/>
      <point x="551" y="413"/>
      <point x="549.6" y="465.6" type="curve" smooth="yes"/>
      <point x="549" y="563"/>
      <point x="480" y="602"/>
      <point x="378" y="602.4" type="curve" smooth="yes"/>
      <point x="203" y="603"/>
      <point x="33" y="406"/>
      <point x="32.4" y="207.6" type="curve" smooth="yes"/>
      <point x="32" y="75"/>
      <point x="119" y="-13"/>
      <point x="249.6" y="-13.2" type="curve" smooth="yes"/>
      <point x="320" y="-13"/>
      <point x="408" y="45"/>
    </contour>
    <contour>
      <point x="458.4" y="235.2" type="line"/>
      <point x="405.6" y="0" type="line"/>
      <point x="436.8" y="0" type="line"/>
      <point x="489.6" y="235.2" type="line"/>
      <point x="568.8" y="235.2" type="line"/>
      <point x="577.2" y="265.2" type="line"/>
      <point x="375.6" y="265.2" type="line"/>
      <point x="367.2" y="235.2" type="line"/>
    </contour>
    <contour>
      <point x="357.6" y="602.4" type="move" name="top"/>
    </contour>
  </outline>
</glyph>
<glyph name="L" format="1">
  <advance width="600"/>
  <unicode hex="004C"/>
  <outline>
    <contour>
      <point x="472.8" y="500.4" type="curve"/>
      <point x="496.8" y="518.4" type="line"/>
      <point x="465" y="578"/>
      <point x="412" y="603"/>
      <point x="360" y="602.4" type="curve" smooth="yes"/>
      <point x="289" y="602"/>
      <point x="217" y="554"/>
      <point x="196.8" y="456" type="curve" smooth="yes"/>
      <point x="105.6" y="30" type="line"/>
      <point x="26.4" y="30" type="line"/>
      <point x="20.4" y="0" type="line"/>
      <point x="477.6" y="0" type="line"/>
      <point x="514.8" y="188.4" type="line"/>
      <point x="484.8" y="192" type="line"/>
      <point x="452.4" y="30" type="line"/>
      <point x="136.8" y="30" type="line"/>
      <point x="225.6" y="450" type="line" smooth="yes"/>
      <point x="243" y="532"/>
      <point x="301" y="572"/>
      <point x="358.8" y="572.4" type="curve" smooth="yes"/>
      <point x="402" y="573"/>
      <point x="446" y="552"/>
    </contour>
    <contour>
      <point x="360" y="602.4" type="move" name="top"/>
    </contour>
  </outline>
</glyph>
<glyph name="M" format="1">
  <advance width="600"/>
  <unicode hex="004D"/>
  <outline>
    <contour>
      <point x="254.4" y="0" type="line"/>
      <point x="300" y="0" type="line"/>
      <point x="576" y="560.4" type="line"/>
      <point x="463.2" y="30" type="line"/>
      <point x="400.8" y="30" type="line"/>
      <point x="394.8" y="0" type="line"/>
      <point x="552" y="0" type="line"/>
      <point x="558" y="30" type="line"/>
      <point x="493.2" y="30" type="line"/>
      <point x="606" y="560.4" type="line"/>
      <point x="666" y="560.4" type="line"/>
      <point x="673.2" y="590.4" type="line"/>
      <point x="558" y="590.4" type="line"/>
      <point x="283.2" y="34.8" type="line"/>
      <point x="244.8" y="590.4" type="line"/>
      <point x="182.4" y="590.4" type="line"/>
      <point x="176.4" y="560.4" type="line"/>
      <point x="186" y="560.4" type="line"/>
      <point x="73.2" y="30" type="line"/>
      <point x="9.6" y="30" type="line"/>
      <point x="3.6" y="0" type="line"/>
      <point x="157.2" y="0" type="line"/>
      <point x="163.2" y="30" type="line"/>
      <point x="103.2" y="30" type="line"/>
      <point x="216" y="560.4" type="line"/>
    </contour>
    <contour>
      <point x="58.8" y="468" type="curve"/>
      <point x="88.8" y="468" type="line"/>
      <point x="85" y="484"/>
      <point x="105" y="560"/>
      <point x="169.2" y="560.4" type="curve" smooth="yes"/>
      <point x="229.2" y="560.4" type="line"/>
      <point x="229.2" y="590.4" type="line"/>
      <point x="169.2" y="590.4" type="line" smooth="yes"/>
      <point x="85" y="590"/>
      <point x="55" y="497"/>
    </contour>
  </outline>
</glyph>
<glyph name="O" format="1">
  <advance width="600"/>
  <unicode hex="004F"/>
  <outline>
    <component base="zero" xOffset="14"/>
    <contour>
      <point x="376.8" y="602.4" type="move" name="top"/>
    </contour>
  </outline>
</glyph>
<glyph name="P" format="1">
  <advance width="600"/>
  <unicode hex="0050"/>
  <outline>
    <contour>
      <point x="524" y="240"/>
      <point x="591" y="318"/>
      <point x="590.4" y="418.8" type="curve" smooth="yes"/>
      <point x="590" y="512"/>
      <point x="529" y="590"/>
      <point x="370.8" y="590.4" type="curve" smooth="yes"/>
      <point x="213.6" y="590.4" type="line"/>
      <point x="207.6" y="560.4" type="line"/>
      <point x="244.8" y="560.4" type="line"/>
      <point x="132" y="30" type="line"/>
      <point x="42" y="30" type="line"/>
      <point x="36" y="0" type="line"/>
      <point x="253.2" y="0" type="line"/>
      <point x="259.2" y="30" type="line"/>
      <point x="162" y="30" type="line"/>
      <point x="206.4" y="240" type="line"/>
      <point x="345.6" y="240" type="line" smooth="yes"/>
    </contour>
    <contour>
      <point x="352.8" y="270" type="curve" smooth="yes"/>
      <point x="213.6" y="270" type="line"/>
      <point x="274.8" y="560.4" type="line"/>
      <point x="364.8" y="560.4" type="line" smooth="yes"/>
      <point x="514" y="560"/>
      <point x="564" y="491"/>
      <point x="560.4" y="420" type="curve" smooth="yes"/>
      <point x="556" y="334"/>
      <point x="501" y="270"/>
    </contour>
    <component base="Swash" xOffset="-154"/>
  </outline>
</glyph>
<glyph name="R" format="1">
  <advance width="600"/>
  <unicode hex="0052"/>
  <outline>
    <contour>
      <point x="98.4" y="30" type="line"/>
      <point x="211.2" y="560.4" type="line"/>
      <point x="325.2" y="560.4" type="line" smooth="yes"/>
      <point x="453" y="560"/>
      <point x="497" y="512"/>
      <point x="496.8" y="440.4" type="curve" smooth="yes"/>
      <point x="497" y="367"/>
      <point x="436" y="298"/>
      <point x="294" y="298.8" type="curve" smooth="yes"/>
      <point x="150" y="300" type="line"/>
      <point x="146.4" y="270" type="line"/>
      <point x="286.8" y="268.8" type="line" smooth="yes"/>
      <point x="459" y="267"/>
      <point x="525" y="351"/>
      <point x="526.8" y="439.2" type="curve" smooth="yes"/>
      <point x="529" y="526"/>
      <point x="468" y="590"/>
      <point x="331.2" y="590.4" type="curve" smooth="yes"/>
      <point x="235.2" y="590.4" type="line"/>
      <point x="181.2" y="560.4" type="line"/>
      <point x="181.2" y="560.4" type="line"/>
      <point x="68.4" y="30" type="line"/>
      <point x="-21.6" y="30" type="line"/>
      <point x="-27.6" y="0" type="line"/>
      <point x="189.6" y="0" type="line"/>
      <point x="195.6" y="30" type="line"/>
    </contour>
    <contour>
      <point x="296.1" y="282.3" type="curve"/>
      <point x="263.1" y="282.3" type="line"/>
      <point x="362.7" y="42"/>
      <point x="366.6" y="-14.1"/>
      <point x="448.8" y="-13.2" type="curve" smooth="yes"/>
      <point x="480.3" y="-12.9"/>
      <point x="534.3" y="8.7"/>
      <point x="559.5" y="103.8" type="curve"/>
      <point x="530.4" y="111.6" type="line"/>
      <point x="508.2" y="50.1"/>
      <point x="493.2" y="16.5"/>
      <point x="447.6" y="16.8" type="curve" smooth="yes"/>
      <point x="388.5" y="17.1"/>
      <point x="388.8" y="57"/>
    </contour>
    <component base="Swash" xOffset="-171"/>
    <contour>
      <point x="360" y="602.4" type="move" name="top"/>
    </contour>
  </outline>
</glyph>
<glyph name="U" format="1">
  <advance width="600"/>
  <unicode hex="0055"/>
  <outline>
    <contour>
      <point x="249.6" y="-13.2" type="curve" smooth="yes"/>
      <point x="358" y="-13"/>
      <point x="459" y="49"/>
      <point x="488.4" y="180" type="curve" smooth="yes"/>
      <point x="573.6" y="560.4" type="line"/>
      <point x="661.2" y="560.4" type="line"/>
      <point x="666" y="590.4" type="line"/>
      <point x="456" y="590.4" type="line"/>
      <point x="451.2" y="560.4" type="line"/>
      <point x="542.4" y="560.4" type="line"/>
      <point x="457.2" y="180" type="line" smooth="yes"/>
      <point x="435" y="79"/>
      <point x="347" y="17"/>
      <point x="255.6" y="16.8" type="curve" smooth="yes"/>
      <point x="161" y="17"/>
      <point x="101" y="74"/>
      <point x="123.6" y="178.8" type="curve" smooth="yes"/>
      <point x="205.2" y="560.4" type="line"/>
      <point x="292.8" y="560.4" type="line"/>
      <point x="300" y="590.4" type="line"/>
      <point x="90" y="590.4" type="line"/>
      <point x="82.8" y="560.4" type="line"/>
      <point x="174" y="560.4" type="line"/>
      <point x="93.6" y="178.8" type="line" smooth="yes"/>
      <point x="70" y="65"/>
      <point x="142" y="-13"/>
    </contour>
    <contour>
      <point x="384" y="602.4" type="move" name="top_"/>
    </contour>
  </outline>
</glyph>
<glyph name="V" format="1">
  <advance width="600"/>
  <unicode hex="0056"/>
  <outline>
    <contour>
      <point x="180" y="560.4" type="line"/>
      <point x="181.2" y="0" type="line"/>
      <point x="223.2" y="0" type="line"/>
      <point x="568.8" y="560.4" type="line"/>
      <point x="654.3" y="560.4" type="line"/>
      <point x="660.9" y="590.4" type="line"/>
      <point x="447.3" y="590.4" type="line"/>
      <point x="440.7" y="560.4" type="line"/>
      <point x="534" y="560.4" type="line"/>
      <point x="211.2" y="37.2" type="line"/>
      <point x="210" y="560.4" type="line"/>
      <point x="296.7" y="560.4" type="line"/>
      <point x="303.3" y="590.4" type="line"/>
      <point x="93.3" y="590.4" type="line"/>
      <point x="86.7" y="560.4" type="line"/>
    </contour>
  </outline>
</glyph>
<glyph name="bracketleft" format="1">
  <advance width="600"/>
  <unicode hex="005B"/>
  <note>
    bracketleft
  </note>
  <outline>
    <contour>
      <point x="453.6" y="-90.9" type="line"/>
      <point x="142.5" y="-90.9" type="line"/>
      <point x="290.4" y="603" type="line"/>
      <point x="601.8" y="603" type="line"/>
      <point x="595.2" y="573" type="line"/>
      <point x="314.4" y="573" type="line"/>
      <point x="178.8" y="-63" type="line"/>
      <point x="459.9" y="-63" type="line"/>
    </contour>
  </outline>
</glyph>
<glyph name="grave" format="1">
  <advance width="600"/>
  <unicode hex="0060"/>
  <outline>
    <contour>
      <point x="477.6" y="499.2" type="line"/>
      <point x="474" y="478.8" type="line"/>
      <point x="159.6" y="554.4" type="line"/>
      <point x="169.2" y="591.6" type="line"/>
    </contour>
    <contour>
      <point x="313.2" y="442.8" type="move" name="_top"/>
    </contour>
  </outline>
</glyph>
<glyph name="a" format="1">
  <advance width="600"/>
  <unicode hex="0061"/>
  <outline>
    <contour>
      <point x="443.4" y="178.8" type="curve" smooth="yes"/>
      <point x="495" y="387.6" type="line"/>
      <point x="497.1" y="399" type="line"/>
      <point x="429.9" y="435"/>
      <point x="384" y="443.1"/>
      <point x="332.1" y="443.1" type="curve" smooth="yes"/>
      <point x="177.9" y="443.1"/>
      <point x="80.4" y="263.1"/>
      <point x="79.8" y="129.6" type="curve" smooth="yes"/>
      <point x="79.5" y="50.1"/>
      <point x="114.9" y="-12.9"/>
      <point x="192" y="-12.9" type="curve" smooth="yes"/>
      <point x="273.9" y="-12.9"/>
      <point x="344.1" y="80.1"/>
      <point x="412.2" y="176.4" type="curve"/>
      <point x="402" y="143.1"/>
      <point x="393.9" y="96"/>
      <point x="393" y="67.2" type="curve" smooth="yes"/>
      <point x="391.5" y="15"/>
      <point x="417" y="-12"/>
      <point x="449.4" y="-12" type="curve" smooth="yes"/>
      <point x="477.9" y="-12"/>
      <point x="515.1" y="3.9"/>
      <point x="561" y="37.2" type="curve"/>
      <point x="541.8" y="60" type="line"/>
      <point x="500.1" y="30.9"/>
      <point x="468.9" y="18"/>
      <point x="451.8" y="18" type="curve" smooth="yes"/>
      <point x="432.9" y="18"/>
      <point x="423" y="32.1"/>
      <point x="423" y="62.4" type="curve" smooth="yes"/>
      <point x="423" y="89.1"/>
      <point x="425.1" y="105"/>
    </contour>
    <contour>
      <point x="462.9" y="381.9" type="curve"/>
      <point x="425.1" y="230.1" type="line"/>
      <point x="320.1" y="96"/>
      <point x="254.1" y="18"/>
      <point x="196.2" y="18" type="curve" smooth="yes"/>
      <point x="137.1" y="18"/>
      <point x="111" y="68.1"/>
      <point x="111" y="130.8" type="curve" smooth="yes"/>
      <point x="111" y="246.9"/>
      <point x="198.9" y="412.8"/>
      <point x="327" y="412.8" type="curve" smooth="yes"/>
      <point x="365.1" y="412.8"/>
      <point x="405" y="414.9"/>
    </contour>
    <contour>
      <point x="373.8" y="444" type="move" name="top"/>
    </contour>
  </outline>
</glyph>
<glyph name="b" format="1">
  <advance width="600"/>
  <unicode hex="0062"/>
  <outline>
    <contour>
      <point x="513.6" y="296.4" type="curve"/>
      <point x="513.6" y="373.2"/>
      <point x="493.2" y="432"/>
      <point x="402" y="430.8" type="curve" smooth="yes"/>
      <point x="322.8" y="429.6"/>
      <point x="259.2" y="358.8"/>
      <point x="182.4" y="261.6" type="curve"/>
      <point x="241" y="544"/>
      <point x="263" y="604"/>
      <point x="188.4" y="602.4" type="curve" smooth="yes"/>
      <point x="168" y="602.4"/>
      <point x="126" y="586.8"/>
      <point x="75.6" y="558" type="curve"/>
      <point x="90" y="531.6" type="line"/>
      <point x="129.6" y="555.6"/>
      <point x="170.4" y="572.4"/>
      <point x="187.2" y="572.4" type="curve"/>
      <point x="227" y="575"/>
      <point x="208" y="520"/>
      <point x="104.4" y="31.2" type="curve"/>
      <point x="300" y="-94.8"/>
      <point x="514.8" y="69.6"/>
    </contour>
    <contour>
      <point x="139.2" y="49.2" type="curve"/>
      <point x="170.4" y="199.2" type="line"/>
      <point x="260.4" y="315.6"/>
      <point x="332.4" y="402"/>
      <point x="399.6" y="400.8" type="curve" smooth="yes"/>
      <point x="463.2" y="399.6"/>
      <point x="483.6" y="375.6"/>
      <point x="483.6" y="291.6" type="curve" smooth="yes"/>
      <point x="484.8" y="87.6"/>
      <point x="288" y="-48"/>
    </contour>
  </outline>
</glyph>
<glyph name="c" format="1">
  <advance width="600"/>
  <unicode hex="0063"/>
  <outline>
    <contour>
      <point x="463.2" y="100.8" type="curve"/>
      <point x="443" y="122" type="line"/>
      <point x="397" y="59"/>
      <point x="325.2" y="16.8"/>
      <point x="240" y="16.8" type="curve" smooth="yes"/>
      <point x="159.6" y="16.8"/>
      <point x="106" y="71"/>
      <point x="105.6" y="157.2" type="curve" smooth="yes"/>
      <point x="106" y="312"/>
      <point x="221" y="413"/>
      <point x="330" y="412.8" type="curve" smooth="yes"/>
      <point x="366" y="413"/>
      <point x="411" y="401"/>
      <point x="424" y="378" type="curve"/>
      <point x="390.9" y="382.2"/>
      <point x="362.1" y="362.1"/>
      <point x="361.8" y="322.2" type="curve" smooth="yes"/>
      <point x="361.5" y="288"/>
      <point x="398.1" y="273"/>
      <point x="411.6" y="273.3" type="curve" smooth="yes"/>
      <point x="459.9" y="274.5"/>
      <point x="468" y="312"/>
      <point x="468" y="341.1" type="curve" smooth="yes"/>
      <point x="468" y="405"/>
      <point x="408" y="443"/>
      <point x="330" y="443" type="curve" smooth="yes"/>
      <point x="197" y="443"/>
      <point x="76" y="324"/>
      <point x="76" y="158" type="curve" smooth="yes"/>
      <point x="76" y="52"/>
      <point x="141.6" y="-13.2"/>
      <point x="241.2" y="-13.2" type="curve" smooth="yes"/>
      <point x="333.6" y="-13.2"/>
      <point x="418" y="35"/>
    </contour>
    <contour>
      <point x="242" y="-9" type="move" name="bottom"/>
    </contour>
  </outline>
</glyph>
<glyph name="f" format="1">
  <advance width="600"/>
  <unicode hex="0066"/>
  <outline>
    <contour>
      <point x="513.6" y="390" type="line"/>
      <point x="158.4" y="390" type="line"/>
      <point x="151.2" y="360" type="line"/>
      <point x="506.4" y="360" type="line"/>
    </contour>
    <contour>
      <point x="502.8" y="602.4" type="curve" smooth="yes"/>
      <point x="460" y="603"/>
      <point x="418" y="582"/>
      <point x="382.8" y="547.2" type="curve" smooth="yes"/>
      <point x="332" y="497"/>
      <point x="316" y="455"/>
      <point x="289.2" y="304.8" type="curve" smooth="yes"/>
      <point x="244.8" y="60" type="line" smooth="yes"/>
      <point x="224" y="-54"/>
      <point x="196" y="-128"/>
      <point x="99.6" y="-130.8" type="curve" smooth="yes"/>
      <point x="64" y="-132"/>
      <point x="37" y="-119"/>
      <point x="25.2" y="-91.2" type="curve"/>
      <point x="47.7" y="-97.8"/>
      <point x="89.7" y="-86.1"/>
      <point x="88.5" y="-36.9" type="curve" smooth="yes"/>
      <point x="87.6" y="-7.8"/>
      <point x="59.4" y="7.5"/>
      <point x="38.7" y="7.2" type="curve" smooth="yes"/>
      <point x="7.5" y="6.6"/>
      <point x="-11.4" y="-18"/>
      <point x="-12.3" y="-50.4" type="curve" smooth="yes"/>
      <point x="-14.4" y="-120"/>
      <point x="36" y="-160"/>
      <point x="99.6" y="-159.6" type="curve" smooth="yes"/>
      <point x="209" y="-159"/>
      <point x="250" y="-76"/>
      <point x="274.8" y="60" type="curve" smooth="yes"/>
      <point x="294" y="166"/>
      <point x="307" y="245"/>
      <point x="319.2" y="304.8" type="curve" smooth="yes"/>
      <point x="347" y="443"/>
      <point x="360" y="484"/>
      <point x="402" y="525.6" type="curve" smooth="yes"/>
      <point x="432" y="555"/>
      <point x="466" y="574"/>
      <point x="504" y="572.4" type="curve" smooth="yes"/>
      <point x="557" y="570"/>
      <point x="601" y="532"/>
      <point x="602.4" y="510" type="curve"/>
      <point x="588" y="515"/>
      <point x="541.5" y="509.7"/>
      <point x="540.9" y="459" type="curve" smooth="yes"/>
      <point x="540.6" y="432.6"/>
      <point x="566.7" y="409.8"/>
      <point x="593.1" y="411.3" type="curve" smooth="yes"/>
      <point x="615" y="412.5"/>
      <point x="639" y="427.8"/>
      <point x="640.2" y="460.2" type="curve" smooth="yes"/>
      <point x="642.9" y="526.8"/>
      <point x="595" y="601"/>
    </contour>
  </outline>
</glyph>
<glyph name="g" format="1">
  <advance width="600"/>
  <unicode hex="0067"/>
  <outline>
    <contour>
      <point x="486" y="381.6" type="curve"/>
      <point x="448.8" y="230.4" type="line"/>
      <point x="341" y="96"/>
      <point x="275" y="18"/>
      <point x="219.6" y="18" type="curve" smooth="yes"/>
      <point x="158" y="18"/>
      <point x="132" y="68"/>
      <point x="134.4" y="130.8" type="curve" smooth="yes"/>
      <point x="139" y="247"/>
      <point x="220" y="412"/>
      <point x="350.4" y="412.8" type="curve" smooth="yes"/>
      <point x="386" y="413"/>
      <point x="426" y="415"/>
    </contour>
    <contour>
      <point x="355.2" y="442.8" type="curve" smooth="yes"/>
      <point x="199" y="442"/>
      <point x="105" y="263"/>
      <point x="103.2" y="129.6" type="curve" smooth="yes"/>
      <point x="102" y="50"/>
      <point x="137" y="-13"/>
      <point x="216" y="-13.2" type="curve" smooth="yes"/>
      <point x="295" y="-13"/>
      <point x="365" y="80"/>
      <point x="435.6" y="176.4" type="curve"/>
      <point x="409" y="92"/>
      <point x="403" y="19"/>
      <point x="370.8" y="-45.6" type="curve" smooth="yes"/>
      <point x="338" y="-112"/>
      <point x="271" y="-154"/>
      <point x="118.8" y="-110.4" type="curve"/>
      <point x="110.4" y="-140.1" type="line"/>
      <point x="291.9" y="-193.2"/>
      <point x="365.4" y="-130.5"/>
      <point x="404.4" y="-45.6" type="curve" smooth="yes"/>
      <point x="435" y="20"/>
      <point x="447" y="107"/>
      <point x="465.6" y="178.8" type="curve" smooth="yes"/>
      <point x="518.4" y="387.6" type="line"/>
      <point x="520.8" y="399.6" type="line"/>
      <point x="451" y="436"/>
      <point x="406" y="443"/>
    </contour>
    <contour>
      <point x="343.2" y="444" type="move" name="top"/>
    </contour>
  </outline>
</glyph>
<glyph name="q" format="1">
  <advance width="600"/>
  <unicode hex="0071"/>
  <outline>
    <contour>
      <point x="406.8" y="156" type="curve"/>
      <point x="342" y="-152.4" type="line"/>
      <point x="370.8" y="-159.6" type="line"/>
      <point x="489.6" y="399.6" type="line"/>
      <point x="442" y="423"/>
      <point x="381" y="444"/>
      <point x="324" y="444" type="curve" smooth="yes"/>
      <point x="170" y="444"/>
      <point x="77" y="231"/>
      <point x="76.8" y="129.6" type="curve" smooth="yes"/>
      <point x="77" y="54"/>
      <point x="98" y="-13"/>
      <point x="190.8" y="-13.2" type="curve" smooth="yes"/>
      <point x="271" y="-13"/>
      <point x="324" y="53"/>
    </contour>
    <contour>
      <point x="454.8" y="381.6" type="curve"/>
      <point x="422.4" y="226.8" type="line"/>
      <point x="314" y="80"/>
      <point x="247" y="17"/>
      <point x="193.2" y="16.8" type="curve" smooth="yes"/>
      <point x="131" y="17"/>
      <point x="107" y="49"/>
      <point x="106.8" y="126" type="curve" smooth="yes"/>
      <point x="107" y="236"/>
      <point x="205" y="417"/>
      <point x="322.8" y="414" type="curve" smooth="yes"/>
      <point x="366" y="413"/>
      <point x="420" y="402"/>
    </contour>
  </outline>
</glyph>
<glyph name="s" format="1">
  <advance width="600"/>
  <unicode hex="0073"/>
  <outline>
    <contour>
      <point x="276" y="18" type="curve" smooth="yes"/>
      <point x="207" y="18"/>
      <point x="164.7" y="27.6"/>
      <point x="138" y="55.8" type="curve"/>
      <point x="154.5" y="58.8"/>
      <point x="172.2" y="74.1"/>
      <point x="172.8" y="102.6" type="curve" smooth="yes"/>
      <point x="173.1" y="117"/>
      <point x="158.4" y="144.3"/>
      <point x="128.1" y="144.6" type="curve" smooth="yes"/>
      <point x="106.5" y="144.9"/>
      <point x="82.2" y="124.8"/>
      <point x="83.1" y="100.8" type="curve" smooth="yes"/>
      <point x="85.5" y="36"/>
      <point x="159.9" y="-12"/>
      <point x="274.8" y="-12" type="curve" smooth="yes"/>
      <point x="384" y="-12"/>
      <point x="443.7" y="42.9"/>
      <point x="445.2" y="105.6" type="curve" smooth="yes"/>
      <point x="446.7" y="165"/>
      <point x="404.1" y="197.1"/>
      <point x="297.6" y="234" type="curve" smooth="yes"/>
      <point x="219.9" y="261"/>
      <point x="193.2" y="276.9"/>
      <point x="194.4" y="321.6" type="curve" smooth="yes"/>
      <point x="196.2" y="382.5"/>
      <point x="258" y="414"/>
      <point x="336" y="412.8" type="curve" smooth="yes"/>
      <point x="402.9" y="411.9"/>
      <point x="439.8" y="393.6"/>
      <point x="464.7" y="380.1" type="curve"/>
      <point x="434.4" y="374.4"/>
      <point x="425.1" y="351.3"/>
      <point x="426" y="330.3" type="curve" smooth="yes"/>
      <point x="426.9" y="310.8"/>
      <point x="446.4" y="290.7"/>
      <point x="470.7" y="290.7" type="curve" smooth="yes"/>
      <point x="491.1" y="290.7"/>
      <point x="515.7" y="307.5"/>
      <point x="515.4" y="334.8" type="curve" smooth="yes"/>
      <point x="514.8" y="398.4"/>
      <point x="441" y="443.1"/>
      <point x="337.2" y="442.8" type="curve" smooth="yes"/>
      <point x="240" y="443.1"/>
      <point x="161.1" y="395.1"/>
      <point x="164.4" y="321.6" type="curve" smooth="yes"/>
      <point x="167.1" y="255.9"/>
      <point x="207" y="233.1"/>
      <point x="289.2" y="205.2" type="curve" smooth="yes"/>
      <point x="365.1" y="180"/>
      <point x="414" y="155.1"/>
      <point x="415.2" y="105.6" type="curve" smooth="yes"/>
      <point x="416.1" y="57.9"/>
      <point x="363.9" y="18"/>
    </contour>
    <contour>
      <point x="345.6" y="444" type="move" name="top"/>
    </contour>
  </outline>
</glyph>
<glyph name="u" format="1">
  <advance width="600"/>
  <unicode hex="0075"/>
  <outline>
    <component base="n" xScale="-1" yScale="-1" xOffset="600" yOffset="429.900"/>
    <contour>
      <point x="342" y="444" type="move" name="top"/>
    </contour>
  </outline>
</glyph>
<glyph name="v" format="1">
  <advance width="600"/>
  <unicode hex="0076"/>
  <outline>
    <contour>
      <point x="504" y="345.6" type="curve" smooth="yes"/>
      <point x="505.2" y="402"/>
      <point x="476.4" y="444"/>
      <point x="427.2" y="442.8" type="curve" smooth="yes"/>
      <point x="398.4" y="442.8"/>
      <point x="377" y="411"/>
      <point x="376.8" y="394.8" type="curve" smooth="yes"/>
      <point x="375" y="346"/>
      <point x="418" y="302"/>
      <point x="476.4" y="345.6" type="curve"/>
      <point x="468" y="202"/>
      <point x="372" y="18"/>
      <point x="262.8" y="18" type="curve" smooth="yes"/>
      <point x="151" y="18"/>
      <point x="188.4" y="78.6"/>
      <point x="208.8" y="151.2" type="curve" smooth="yes"/>
      <point x="266.4" y="356.4" type="line" smooth="yes"/>
      <point x="279" y="403"/>
      <point x="274.8" y="441.6"/>
      <point x="225.6" y="441.6" type="curve" smooth="yes"/>
      <point x="187.2" y="441.6"/>
      <point x="150" y="426"/>
      <point x="100.8" y="394.8" type="curve"/>
      <point x="115.2" y="369.6" type="line"/>
      <point x="159.6" y="399.6"/>
      <point x="192" y="411.6"/>
      <point x="220.8" y="411.6" type="curve" smooth="yes"/>
      <point x="238.8" y="411.6"/>
      <point x="249.6" y="408"/>
      <point x="235.2" y="356.4" type="curve" smooth="yes"/>
      <point x="180" y="159.6" type="line" smooth="yes"/>
      <point x="152" y="60"/>
      <point x="131.1" y="-12.3"/>
      <point x="259.2" y="-12" type="curve" smooth="yes"/>
      <point x="380.1" y="-11.7"/>
      <point x="494" y="156"/>
    </contour>
  </outline>
</glyph>
<glyph name="w" format="1">
  <advance width="600"/>
  <unicode hex="0077"/>
  <outline>
    <contour>
      <point x="583.2" y="345.6" type="curve" smooth="yes"/>
      <point x="583" y="382"/>
      <point x="580.8" y="398.4"/>
      <point x="560.4" y="418.8" type="curve" smooth="yes"/>
      <point x="514" y="465"/>
      <point x="448" y="438"/>
      <point x="451.2" y="378" type="curve" smooth="yes"/>
      <point x="452" y="362"/>
      <point x="467" y="328"/>
      <point x="501.6" y="327.6" type="curve" smooth="yes"/>
      <point x="527" y="327"/>
      <point x="542" y="340"/>
      <point x="552" y="345.6" type="curve"/>
      <point x="552" y="296"/>
      <point x="532" y="239"/>
      <point x="513" y="195" type="curve" smooth="yes"/>
      <point x="480" y="118"/>
      <point x="418" y="19"/>
      <point x="356" y="19" type="curve" smooth="yes"/>
      <point x="329" y="19"/>
      <point x="319" y="37"/>
      <point x="319" y="80" type="curve" smooth="yes"/>
      <point x="319" y="138"/>
      <point x="337" y="266"/>
      <point x="368" y="430" type="curve"/>
      <point x="338" y="429" type="line"/>
      <point x="301" y="256"/>
      <point x="246" y="150"/>
      <point x="208" y="96" type="curve" smooth="yes"/>
      <point x="177" y="52"/>
      <point x="141" y="19"/>
      <point x="115" y="19" type="curve" smooth="yes"/>
      <point x="98" y="19"/>
      <point x="87" y="34"/>
      <point x="87" y="78" type="curve" smooth="yes"/>
      <point x="87" y="147"/>
      <point x="114" y="320"/>
      <point x="130" y="443" type="curve"/>
      <point x="99" y="443" type="line"/>
      <point x="83" y="332"/>
      <point x="58" y="141"/>
      <point x="58" y="79" type="curve" smooth="yes"/>
      <point x="58" y="19"/>
      <point x="82" y="-13"/>
      <point x="114" y="-13" type="curve" smooth="yes"/>
      <point x="154" y="-13"/>
      <point x="207" y="39"/>
      <point x="237" y="81" type="curve" smooth="yes"/>
      <point x="256" y="107"/>
      <point x="274" y="140"/>
      <point x="301" y="203" type="curve"/>
      <point x="297" y="167"/>
      <point x="290" y="104"/>
      <point x="290" y="75" type="curve" smooth="yes"/>
      <point x="290" y="32"/>
      <point x="306" y="-13"/>
      <point x="355" y="-13" type="curve" smooth="yes"/>
      <point x="414" y="-13"/>
      <point x="479" y="51"/>
      <point x="532" y="163" type="curve" smooth="yes"/>
      <point x="560" y="222"/>
      <point x="583" y="281"/>
    </contour>
  </outline>
</glyph>
<glyph name="y" format="1">
  <advance width="600"/>
  <unicode hex="0079"/>
  <outline>
    <contour>
      <point x="507" y="429.6" type="line"/>
      <point x="454.8" y="285"/>
      <point x="291" y="14.7"/>
      <point x="187.5" y="16.2" type="curve" smooth="yes"/>
      <point x="128.4" y="17.1"/>
      <point x="171" y="77.7"/>
      <point x="189.6" y="150" type="curve" smooth="yes"/>
      <point x="240.6" y="349.2" type="line" smooth="yes"/>
      <point x="258.6" y="419.1"/>
      <point x="229.8" y="443.4"/>
      <point x="195" y="442.8" type="curve" smooth="yes"/>
      <point x="174" y="442.5"/>
      <point x="132" y="426.9"/>
      <point x="82.2" y="398.4" type="curve"/>
      <point x="96.6" y="372" type="line"/>
      <point x="137.1" y="395.1"/>
      <point x="177" y="411.9"/>
      <point x="193.8" y="412.8" type="curve" smooth="yes"/>
      <point x="213.9" y="414"/>
      <point x="222" y="398.1"/>
      <point x="209.4" y="344.7" type="curve" smooth="yes"/>
      <point x="160.8" y="158.4" type="line" smooth="yes"/>
      <point x="138" y="70.8"/>
      <point x="110.7" y="-12.9"/>
      <point x="179.4" y="-12.9" type="curve" smooth="yes"/>
      <point x="304.8" y="-12.9"/>
      <point x="449.7" y="226.2"/>
      <point x="493.2" y="344.7" type="curve"/>
      <point x="454.8" y="176.7"/>
      <point x="435.6" y="100.8"/>
      <point x="422.4" y="49.2" type="curve" smooth="yes"/>
      <point x="393.9" y="-62.7"/>
      <point x="350.1" y="-119.1"/>
      <point x="273.3" y="-128.4" type="curve" smooth="yes"/>
      <point x="235.5" y="-132.9"/>
      <point x="189" y="-124.2"/>
      <point x="134.4" y="-109.2" type="curve"/>
      <point x="125.4" y="-138.6" type="line"/>
      <point x="186.9" y="-156.6"/>
      <point x="237.6" y="-163.5"/>
      <point x="279.9" y="-157.8" type="curve" smooth="yes"/>
      <point x="366.3" y="-146.1"/>
      <point x="415.8" y="-89.7"/>
      <point x="453.3" y="49.2" type="curve" smooth="yes"/>
      <point x="475.5" y="131.1"/>
      <point x="500.4" y="252"/>
      <point x="537.6" y="429.6" type="curve"/>
    </contour>
    <contour>
      <point x="372" y="444" type="move" name="top"/>
    </contour>
  </outline>
</glyph>
<glyph name="z" format="1">
  <advance width="600"/>
  <unicode hex="007A"/>
  <outline>
    <contour>
      <point x="49.5" y="8.4" type="line"/>
      <point x="70.8" y="-13.2" type="line"/>
      <point x="144" y="60"/>
      <point x="193.2" y="59.1"/>
      <point x="212.7" y="59.1" type="curve" smooth="yes"/>
      <point x="306.3" y="59.1"/>
      <point x="301.8" y="-12.9"/>
      <point x="381.6" y="-12.9" type="curve" smooth="yes"/>
      <point x="446.7" y="-12.9"/>
      <point x="481.5" y="46.2"/>
      <point x="526.5" y="108.3" type="curve"/>
      <point x="501.6" y="125.1" type="line"/>
      <point x="452.1" y="59.1"/>
      <point x="427.8" y="17.1"/>
      <point x="381.6" y="17.1" type="curve" smooth="yes"/>
      <point x="315.6" y="17.1"/>
      <point x="325.8" y="89.1"/>
      <point x="213.3" y="89.1" type="curve" smooth="yes"/>
      <point x="193.2" y="89.1"/>
      <point x="162" y="78"/>
      <point x="162" y="78" type="curve"/>
      <point x="503.7" y="422.4" type="line"/>
      <point x="485" y="444" type="line"/>
    </contour>
    <contour>
      <point x="237.9" y="443.1" type="curve" smooth="yes"/>
      <point x="147.9" y="443.1"/>
      <point x="83.1" y="385.5"/>
      <point x="83.1" y="332.4" type="curve" smooth="yes"/>
      <point x="83.1" y="306.6"/>
      <point x="104.4" y="273.6"/>
      <point x="139.8" y="273.6" type="curve" smooth="yes"/>
      <point x="156.9" y="273.6"/>
      <point x="198.9" y="285.6"/>
      <point x="198.6" y="336" type="curve" smooth="yes"/>
      <point x="198.3" y="369.9"/>
      <point x="165.9" y="385.5"/>
      <point x="150.6" y="388.8" type="curve"/>
      <point x="165.9" y="399"/>
      <point x="183.3" y="411.6"/>
      <point x="237.9" y="412.8" type="curve" smooth="yes"/>
      <point x="335.1" y="414.9"/>
      <point x="372.3" y="369.9"/>
      <point x="401.4" y="350.1" type="curve"/>
      <point x="423.6" y="373.2" type="line"/>
      <point x="377.1" y="402.9"/>
      <point x="341.7" y="443.1"/>
    </contour>
    <contour>
      <point x="324" y="444" type="move" name="top"/>
    </contour>
  </outline>
</glyph>
<glyph name="bar" format="1">
  <advance width="614"/>
  <unicode hex="007C"/>
  <note>
    bar
  </note>
  <outline>
    <contour>
      <point x="410.4" y="602.4" type="line"/>
      <point x="379.2" y="602.4" type="line"/>
      <point x="214.8" y="-159.6" type="line"/>
      <point x="246" y="-159.6" type="line"/>
    </contour>
  </outline>
</glyph>
<glyph name="braceright" format="1">
  <advance width="600"/>
  <unicode hex="007D"/>
  <note>
    braceright
  </note>
  <outline>
    <contour>
      <point x="445.5" y="187.5" type="curve"/>
      <point x="447" y="217.5" type="line"/>
      <point x="394.2" y="241.2"/>
      <point x="384.6" y="271.8"/>
      <point x="397.5" y="325.2" type="curve" smooth="yes"/>
      <point x="415.5" y="400.5" type="line" smooth="yes"/>
      <point x="440.4" y="504.3"/>
      <point x="380.7" y="591.3"/>
      <point x="288.6" y="596.4" type="curve" smooth="yes"/>
      <point x="221.7" y="600"/>
      <point x="163.2" y="555.6"/>
      <point x="159.9" y="490.8" type="curve" smooth="yes"/>
      <point x="158.4" y="460.8"/>
      <point x="176.1" y="434.1"/>
      <point x="204" y="432.6" type="curve" smooth="yes"/>
      <point x="230.1" y="431.1"/>
      <point x="253.8" y="445.8"/>
      <point x="255.3" y="473.7" type="curve" smooth="yes"/>
      <point x="256.5" y="495.9"/>
      <point x="239.4" y="517.5"/>
      <point x="217.5" y="519" type="curve" smooth="yes"/>
      <point x="208.5" y="519.6"/>
      <point x="197.4" y="516.9"/>
      <point x="189.9" y="509.4" type="curve"/>
      <point x="198.9" y="548.7"/>
      <point x="246.3" y="568.5"/>
      <point x="286.2" y="566.4" type="curve" smooth="yes"/>
      <point x="360.9" y="562.5"/>
      <point x="405.3" y="495"/>
      <point x="385.8" y="405.9" type="curve" smooth="yes"/>
      <point x="369" y="328.8" type="line" smooth="yes"/>
      <point x="354.6" y="262.5"/>
      <point x="366" y="218.7"/>
      <point x="410.4" y="204.3" type="curve"/>
      <point x="364.8" y="194.7"/>
      <point x="337.5" y="151.8"/>
      <point x="317.1" y="87" type="curve" smooth="yes"/>
      <point x="293.1" y="10.2" type="line" smooth="yes"/>
      <point x="265.8" y="-76.8"/>
      <point x="252" y="-142.8"/>
      <point x="177" y="-138.9" type="curve" smooth="yes"/>
      <point x="137.1" y="-136.8"/>
      <point x="92.4" y="-112.5"/>
      <point x="87.6" y="-72" type="curve"/>
      <point x="93.9" y="-80.4"/>
      <point x="105" y="-84"/>
      <point x="113.7" y="-84.6" type="curve" smooth="yes"/>
      <point x="135.6" y="-86.1"/>
      <point x="154.8" y="-65.7"/>
      <point x="156" y="-43.8" type="curve" smooth="yes"/>
      <point x="157.5" y="-15.6"/>
      <point x="135.6" y="1.5"/>
      <point x="109.5" y="2.7" type="curve" smooth="yes"/>
      <point x="81.6" y="3.9"/>
      <point x="60.9" y="-20.7"/>
      <point x="59.4" y="-50.7" type="curve" smooth="yes"/>
      <point x="56.1" y="-115.5"/>
      <point x="109.5" y="-165.3"/>
      <point x="176.4" y="-168.9" type="curve" smooth="yes"/>
      <point x="268.5" y="-174"/>
      <point x="291.6" y="-89.7"/>
      <point x="323.1" y="12.6" type="curve" smooth="yes"/>
      <point x="346.2" y="87.6" type="line" smooth="yes"/>
      <point x="362.4" y="139.8"/>
      <point x="390.6" y="169.2"/>
    </contour>
  </outline>
</glyph>
<glyph name="cent" format="1">
  <advance width="600"/>
  <unicode hex="00A2"/>
  <outline>
    <contour>
      <point x="326.4" y="537.6" type="line"/>
      <point x="192" y="-94.8" type="line"/>
      <point x="222" y="-94.8" type="line"/>
      <point x="356.4" y="537.6" type="line"/>
    </contour>
    <component base="c"/>
  </outline>
</glyph>
<glyph name="sterling" format="1">
  <advance width="600"/>
  <unicode hex="00A3"/>
  <outline>
    <contour>
      <point x="402" y="301.2" type="line"/>
      <point x="46.8" y="301.2" type="line"/>
      <point x="39.6" y="271.2" type="line"/>
      <point x="394.8" y="271.2" type="line"/>
    </contour>
    <component base="L"/>
  </outline>
</glyph>
<glyph name="section" format="1">
  <advance width="600"/>
  <unicode hex="00A7"/>
  <outline>
    <contour>
      <point x="411.6" y="-10.8" type="curve" smooth="yes"/>
      <point x="416" y="76"/>
      <point x="336" y="110"/>
      <point x="211.2" y="158.4" type="curve" smooth="yes"/>
      <point x="146" y="184"/>
      <point x="36" y="212"/>
      <point x="85.2" y="309.6" type="curve" smooth="yes"/>
      <point x="126" y="391"/>
      <point x="240" y="338"/>
      <point x="270" y="322.8" type="curve"/>
      <point x="259.2" y="356.4" type="line"/>
      <point x="250" y="361"/>
      <point x="114" y="432"/>
      <point x="58.8" y="322.8" type="curve" smooth="yes"/>
      <point x="2" y="210"/>
      <point x="112" y="164"/>
      <point x="196.8" y="130.8" type="curve" smooth="yes"/>
      <point x="338" y="75"/>
      <point x="382" y="58"/>
      <point x="381.6" y="-10.8" type="curve" smooth="yes"/>
      <point x="381" y="-82"/>
      <point x="325" y="-131"/>
      <point x="234" y="-130.8" type="curve" smooth="yes"/>
      <point x="160" y="-131"/>
      <point x="99" y="-74"/>
      <point x="102" y="-14.4" type="curve"/>
      <point x="137" y="-41"/>
      <point x="170" y="-14"/>
      <point x="169.2" y="19.2" type="curve" smooth="yes"/>
      <point x="169" y="36"/>
      <point x="151" y="62"/>
      <point x="120" y="61.2" type="curve" smooth="yes"/>
      <point x="79" y="60"/>
      <point x="71" y="20"/>
      <point x="70.8" y="-13.2" type="curve" smooth="yes"/>
      <point x="70" y="-97"/>
      <point x="142" y="-160"/>
      <point x="234" y="-160.8" type="curve" smooth="yes"/>
      <point x="334" y="-162"/>
      <point x="407" y="-107"/>
    </contour>
    <contour>
      <point x="159.6" y="454.8" type="curve" smooth="yes"/>
      <point x="155" y="368"/>
      <point x="235" y="334"/>
      <point x="360" y="285.6" type="curve" smooth="yes"/>
      <point x="425" y="260"/>
      <point x="535" y="232"/>
      <point x="486" y="134.4" type="curve" smooth="yes"/>
      <point x="445" y="53"/>
      <point x="331" y="106"/>
      <point x="301.2" y="121.2" type="curve"/>
      <point x="312" y="87.6" type="line"/>
      <point x="321" y="83"/>
      <point x="457" y="12"/>
      <point x="512.4" y="121.2" type="curve" smooth="yes"/>
      <point x="569" y="234"/>
      <point x="459" y="280"/>
      <point x="374.4" y="313.2" type="curve" smooth="yes"/>
      <point x="233" y="369"/>
      <point x="189" y="386"/>
      <point x="189.6" y="454.8" type="curve" smooth="yes"/>
      <point x="190" y="526"/>
      <point x="246" y="575"/>
      <point x="337.2" y="574.8" type="curve" smooth="yes"/>
      <point x="411" y="575"/>
      <point x="472" y="518"/>
      <point x="469.2" y="458.4" type="curve"/>
      <point x="422" y="486"/>
      <point x="395" y="447"/>
      <point x="394.8" y="423.6" type="curve" smooth="yes"/>
      <point x="395" y="401"/>
      <point x="420" y="375"/>
      <point x="451.2" y="376.8" type="curve" smooth="yes"/>
      <point x="486" y="379"/>
      <point x="500" y="424"/>
      <point x="500.4" y="457.2" type="curve" smooth="yes"/>
      <point x="501" y="541"/>
      <point x="429" y="604"/>
      <point x="337.2" y="604.8" type="curve" smooth="yes"/>
      <point x="237" y="606"/>
      <point x="164" y="551"/>
    </contour>
  </outline>
</glyph>
<glyph name="dieresis" format="1">
  <advance width="600"/>
  <unicode hex="00A8"/>
  <outline>
    <contour>
      <point x="298.8" y="495.6" type="curve"/>
      <point x="305" y="502"/>
      <point x="308" y="510"/>
      <point x="308.4" y="519.6" type="curve" smooth="yes"/>
      <point x="309" y="538"/>
      <point x="294" y="553"/>
      <point x="274.8" y="553.2" type="curve" smooth="yes"/>
      <point x="256" y="553"/>
      <point x="241" y="538"/>
      <point x="241.2" y="519.6" type="curve" smooth="yes"/>
      <point x="241" y="500"/>
      <point x="256" y="484"/>
      <point x="274.8" y="484.8" type="curve" smooth="yes"/>
      <point x="284" y="485"/>
      <point x="292" y="488"/>
    </contour>
    <contour>
      <point x="480" y="495.6" type="curve"/>
      <point x="486" y="502"/>
      <point x="489" y="510"/>
      <point x="489.6" y="519.6" type="curve" smooth="yes"/>
      <point x="491" y="538"/>
      <point x="475" y="553"/>
      <point x="456" y="553.2" type="curve" smooth="yes"/>
      <point x="437" y="553"/>
      <point x="422" y="538"/>
      <point x="422.4" y="519.6" type="curve" smooth="yes"/>
      <point x="423" y="500"/>
      <point x="437" y="484"/>
      <point x="456" y="484.8" type="curve" smooth="yes"/>
      <point x="465" y="485"/>
      <point x="473" y="488"/>
    </contour>
    <contour>
      <point x="360" y="442.8" type="move" name="_top"/>
    </contour>
  </outline>
</glyph>
<glyph name="copyright" format="1">
  <advance width="600"/>
  <unicode hex="00A9"/>
  <note>
    copyright
  </note>
  <outline>
    <contour>
      <point x="504" y="90" type="curve" smooth="yes"/>
      <point x="561" y="147"/>
      <point x="589" y="215"/>
      <point x="589" y="295" type="curve" smooth="yes"/>
      <point x="589" y="455"/>
      <point x="459" y="585"/>
      <point x="299" y="585" type="curve" smooth="yes"/>
      <point x="139" y="585"/>
      <point x="9" y="455"/>
      <point x="9" y="295" type="curve" smooth="yes"/>
      <point x="9" y="135"/>
      <point x="139" y="5"/>
      <point x="299" y="5" type="curve" smooth="yes"/>
      <point x="379" y="5"/>
      <point x="447" y="33"/>
    </contour>
    <contour>
      <point x="112" y="108" type="curve" smooth="yes"/>
      <point x="60" y="159"/>
      <point x="34" y="222"/>
      <point x="34" y="295" type="curve" smooth="yes"/>
      <point x="34" y="442"/>
      <point x="152" y="559"/>
      <point x="299" y="559" type="curve" smooth="yes"/>
      <point x="444" y="559"/>
      <point x="563" y="440"/>
      <point x="563" y="295" type="curve" smooth="yes"/>
      <point x="563" y="148"/>
      <point x="446" y="30"/>
      <point x="299" y="30" type="curve" smooth="yes"/>
      <point x="226" y="30"/>
      <point x="163" y="56"/>
    </contour>
    <contour>
      <point x="301" y="106" type="curve" smooth="yes"/>
      <point x="388" y="106"/>
      <point x="462" y="160"/>
      <point x="495" y="245" type="curve"/>
      <point x="468" y="257" type="line"/>
      <point x="441" y="186"/>
      <point x="374" y="136"/>
      <point x="301" y="136" type="curve" smooth="yes"/>
      <point x="210" y="136"/>
      <point x="138" y="205"/>
      <point x="138" y="300" type="curve" smooth="yes"/>
      <point x="138" y="392"/>
      <point x="201" y="455"/>
      <point x="297" y="455" type="curve" smooth="yes"/>
      <point x="358" y="455"/>
      <point x="414" y="416"/>
      <point x="414" y="360" type="curve"/>
      <point x="404" y="369"/>
      <point x="392" y="374"/>
      <point x="377" y="374" type="curve" smooth="yes"/>
      <point x="358" y="374"/>
      <point x="340" y="354"/>
      <point x="340" y="335" type="curve" smooth="yes"/>
      <point x="340" y="307"/>
      <point x="362" y="288"/>
      <point x="391" y="288" type="curve" smooth="yes"/>
      <point x="420" y="288"/>
      <point x="444" y="315"/>
      <point x="444" y="354" type="curve" smooth="yes"/>
      <point x="444" y="426"/>
      <point x="382" y="485"/>
      <point x="297" y="485" type="curve" smooth="yes"/>
      <point x="193" y="485"/>
      <point x="108" y="408"/>
      <point x="108" y="300" type="curve" smooth="yes"/>
      <point x="108" y="193"/>
      <point x="188" y="106"/>
    </contour>
  </outline>
</glyph>
<glyph name="registered" format="1">
  <advance width="600"/>
  <unicode hex="00AE"/>
  <note>
    registered
  </note>
  <outline>
    <contour>
      <point x="219" y="314" type="curve" smooth="yes"/>
      <point x="298" y="314"/>
      <point x="363" y="379"/>
      <point x="363" y="459" type="curve" smooth="yes"/>
      <point x="363" y="538"/>
      <point x="298" y="603"/>
      <point x="219" y="603" type="curve" smooth="yes"/>
      <point x="139" y="603"/>
      <point x="74" y="538"/>
      <point x="74" y="459" type="curve" smooth="yes"/>
      <point x="74" y="379"/>
      <point x="139" y="314"/>
    </contour>
    <contour>
      <point x="219" y="333" type="curve" smooth="yes"/>
      <point x="148" y="333"/>
      <point x="93" y="388"/>
      <point x="93" y="459" type="curve" smooth="yes"/>
      <point x="93" y="528"/>
      <point x="150" y="584"/>
      <point x="219" y="584" type="curve" smooth="yes"/>
      <point x="288" y="584"/>
      <point x="344" y="528"/>
      <point x="344" y="459" type="curve" smooth="yes"/>
      <point x="344" y="390"/>
      <point x="288" y="333"/>
    </contour>
    <contour>
      <point x="154" y="389" type="line"/>
      <point x="211" y="389" type="line"/>
      <point x="211" y="408" type="line"/>
      <point x="191" y="408" type="line"/>
      <point x="191" y="449" type="line"/>
      <point x="211" y="449" type="line" smooth="yes"/>
      <point x="223" y="449"/>
      <point x="230" y="443"/>
      <point x="233" y="430" type="curve" smooth="yes"/>
      <point x="240" y="402"/>
      <point x="251" y="388"/>
      <point x="268" y="388" type="curve" smooth="yes"/>
      <point x="287" y="388"/>
      <point x="297" y="401"/>
      <point x="297" y="428" type="curve" smooth="yes"/>
      <point x="297" y="439" type="line"/>
      <point x="278" y="439" type="line"/>
      <point x="278" y="428" type="line" smooth="yes"/>
      <point x="278" y="414"/>
      <point x="275" y="407"/>
      <point x="268" y="407" type="curve"/>
      <point x="264" y="408"/>
      <point x="259" y="417"/>
      <point x="252" y="434" type="curve"/>
      <point x="248" y="448"/>
      <point x="244" y="456"/>
      <point x="240" y="457" type="curve"/>
      <point x="252" y="457"/>
      <point x="270" y="469"/>
      <point x="270" y="493" type="curve" smooth="yes"/>
      <point x="270" y="518"/>
      <point x="252" y="533"/>
      <point x="225" y="533" type="curve" smooth="yes"/>
      <point x="154" y="533" type="line"/>
      <point x="154" y="514" type="line"/>
      <point x="172" y="514" type="line"/>
      <point x="172" y="408" type="line"/>
      <point x="154" y="408" type="line"/>
    </contour>
    <contour>
      <point x="191" y="468" type="line"/>
      <point x="191" y="514" type="line"/>
      <point x="225" y="514" type="line" smooth="yes"/>
      <point x="242" y="514"/>
      <point x="251" y="507"/>
      <point x="251" y="493" type="curve" smooth="yes"/>
      <point x="251" y="476"/>
      <point x="239" y="468"/>
      <point x="216" y="468" type="curve" smooth="yes"/>
    </contour>
  </outline>
</glyph>
<glyph name="macron" format="1">
  <advance width="600"/>
  <unicode hex="00AF"/>
  <outline>
    <contour>
      <point x="212.4" y="543.6" type="line"/>
      <point x="496.8" y="543.6" type="line"/>
      <point x="489.6" y="513.6" type="line"/>
      <point x="205.2" y="513.6" type="line"/>
    </contour>
    <contour>
      <point x="304.8" y="442.8" type="move" name="_top"/>
    </contour>
  </outline>
</glyph>
<glyph name="plusminus" format="1">
  <advance width="600"/>
  <unicode hex="00B1"/>
  <note>
    plusminus
  </note>
  <outline>
    <contour>
      <point x="87" y="268" type="line"/>
      <point x="87" y="298" type="line"/>
      <point x="287" y="298" type="line"/>
      <point x="287" y="430" type="line"/>
      <point x="317" y="429" type="line"/>
      <point x="317" y="297" type="line"/>
      <point x="517" y="298" type="line"/>
      <point x="517" y="268" type="line"/>
      <point x="317" y="267" type="line"/>
      <point x="317" y="135" type="line"/>
      <point x="287" y="136" type="line"/>
      <point x="287" y="268" type="line"/>
    </contour>
    <contour>
      <point x="517" y="36" type="line"/>
      <point x="87" y="36" type="line"/>
      <point x="87" y="67" type="line"/>
      <point x="517" y="67" type="line"/>
    </contour>
  </outline>
</glyph>
<glyph name="uni00B5" format="1">
  <advance width="600"/>
  <unicode hex="00B5"/>
  <outline>
    <contour>
      <point x="63.9" y="-147.9" type="line"/>
      <point x="130.8" y="98.1" type="line"/>
      <point x="102.9" y="99.9" type="line"/>
      <point x="36.9" y="-147.9" type="line"/>
    </contour>
    <component base="u"/>
    <contour>
      <point x="317" y="442" type="move" name="top"/>
    </contour>
  </outline>
</glyph>
<glyph name="paragraph" format="1">
  <advance width="598"/>
  <unicode hex="00B6"/>
  <outline>
    <contour>
      <point x="48" y="106" type="line"/>
      <point x="48" y="105"/>
      <point x="49" y="104"/>
      <point x="49" y="103" type="curve"/>
      <point x="75" y="25"/>
      <point x="153" y="-13"/>
      <point x="230" y="-13" type="curve" smooth="yes"/>
      <point x="284" y="-13"/>
      <point x="348" y="1"/>
      <point x="392" y="34" type="curve" smooth="yes"/>
      <point x="436" y="66"/>
      <point x="453" y="113"/>
      <point x="463" y="166" type="curve" smooth="yes"/>
      <point x="487" y="293"/>
      <point x="494" y="442"/>
      <point x="504" y="571" type="curve"/>
      <point x="505.2" y="571.2" type="line"/>
      <point x="505.2" y="601.2" type="line"/>
      <point x="363.6" y="601.2" type="line"/>
      <point x="255" y="601"/>
      <point x="127" y="550"/>
      <point x="127" y="415" type="curve" smooth="yes"/>
      <point x="127" y="300"/>
      <point x="205" y="252"/>
      <point x="357" y="250" type="curve"/>
      <point x="338" y="112"/>
      <point x="320" y="18"/>
      <point x="217" y="18" type="curve" smooth="yes"/>
      <point x="151" y="18"/>
      <point x="93" y="63"/>
      <point x="75" y="126" type="curve"/>
    </contour>
    <contour>
      <point x="325" y="37" type="line" smooth="yes"/>
      <point x="356" y="73"/>
      <point x="373" y="118"/>
      <point x="380" y="166" type="curve" smooth="yes"/>
      <point x="396" y="266"/>
      <point x="403" y="367"/>
      <point x="411" y="467" type="curve" smooth="yes"/>
      <point x="420" y="571" type="line"/>
      <point x="471" y="571" type="line"/>
      <point x="464" y="471" type="line" smooth="yes"/>
      <point x="456" y="372"/>
      <point x="451" y="270"/>
      <point x="434" y="172" type="curve" smooth="yes"/>
      <point x="421" y="102"/>
      <point x="393" y="56"/>
      <point x="327" y="33" type="curve" smooth="yes"/>
      <point x="320" y="31" type="line"/>
    </contour>
    <contour>
      <point x="504.4" y="601.4" type="curve" smooth="yes"/>
      <point x="461.2" y="601.4" type="line"/>
      <point x="461.2" y="571.4" type="line"/>
      <point x="504.4" y="571.4" type="line" smooth="yes"/>
      <point x="588.4" y="571.4"/>
      <point x="630.4" y="529.4"/>
      <point x="608.8" y="495.8" type="curve"/>
      <point x="634" y="479" type="line"/>
      <point x="666.4" y="529.4"/>
      <point x="623.2" y="601.4"/>
    </contour>
  </outline>
</glyph>
<glyph name="periodcentered" format="1">
  <advance width="600"/>
  <unicode hex="00B7"/>
  <note>
    periodcentered
  </note>
  <outline>
    <contour>
      <point x="301" y="221" type="curve" smooth="yes"/>
      <point x="337" y="221"/>
      <point x="366" y="251"/>
      <point x="366" y="287" type="curve" smooth="yes"/>
      <point x="366" y="323"/>
      <point x="337" y="354"/>
      <point x="301" y="354" type="curve" smooth="yes"/>
      <point x="264" y="354"/>
      <point x="233" y="323"/>
      <point x="233" y="287" type="curve" smooth="yes"/>
      <point x="233" y="252"/>
      <point x="264" y="221"/>
    </contour>
  </outline>
</glyph>
<glyph name="onehalf" format="1">
  <advance width="600"/>
  <unicode hex="00BD"/>
  <note>
    onehalf
  </note>
  <outline>
    <contour>
      <point x="101" y="-13" type="line"/>
      <point x="532" y="590" type="line"/>
      <point x="512" y="603" type="line"/>
      <point x="81" y="1" type="line"/>
    </contour>
    <contour>
      <point x="40" y="455" type="curve"/>
      <point x="54" y="436" type="line"/>
      <point x="109" y="479"/>
      <point x="122" y="493"/>
      <point x="159" y="551" type="curve"/>
      <point x="159" y="347" type="line"/>
      <point x="58" y="347" type="line"/>
      <point x="58" y="323" type="line"/>
      <point x="262" y="323" type="line"/>
      <point x="262" y="347" type="line"/>
      <point x="183" y="347" type="line"/>
      <point x="183" y="590" type="line"/>
      <point x="151" y="590" type="line"/>
      <point x="123" y="531"/>
      <point x="87" y="492"/>
    </contour>
    <contour>
      <point x="358" y="194" type="curve"/>
      <point x="358" y="219"/>
      <point x="388" y="249"/>
      <point x="439" y="249" type="curve" smooth="yes"/>
      <point x="486" y="249"/>
      <point x="513" y="224"/>
      <point x="513" y="196" type="curve" smooth="yes"/>
      <point x="513" y="166"/>
      <point x="497" y="148"/>
      <point x="466" y="136" type="curve" smooth="yes"/>
      <point x="409" y="114" type="line" smooth="yes"/>
      <point x="359" y="95"/>
      <point x="326" y="71"/>
      <point x="326" y="2" type="curve"/>
      <point x="351" y="-11" type="line"/>
      <point x="375" y="4"/>
      <point x="389" y="15"/>
      <point x="412" y="15" type="curve" smooth="yes"/>
      <point x="449" y="15"/>
      <point x="448" y="-13"/>
      <point x="498" y="-13" type="curve" smooth="yes"/>
      <point x="535" y="-13"/>
      <point x="558" y="12"/>
      <point x="558" y="69" type="curve" smooth="yes"/>
      <point x="558" y="85" type="line"/>
      <point x="534" y="85" type="line"/>
      <point x="534" y="70" type="line" smooth="yes"/>
      <point x="534" y="35"/>
      <point x="522" y="11"/>
      <point x="498" y="11" type="curve" smooth="yes"/>
      <point x="467" y="11"/>
      <point x="453" y="39"/>
      <point x="412" y="39" type="curve" smooth="yes"/>
      <point x="388" y="39"/>
      <point x="372" y="32"/>
      <point x="350" y="16" type="curve"/>
      <point x="350" y="41"/>
      <point x="364" y="71"/>
      <point x="419" y="92" type="curve" smooth="yes"/>
      <point x="473" y="113" type="line" smooth="yes"/>
      <point x="512" y="128"/>
      <point x="537" y="151"/>
      <point x="537" y="196" type="curve" smooth="yes"/>
      <point x="537" y="240"/>
      <point x="495" y="273"/>
      <point x="439" y="273" type="curve" smooth="yes"/>
      <point x="383" y="273"/>
      <point x="337" y="237"/>
      <point x="337" y="195" type="curve" smooth="yes"/>
      <point x="337" y="174"/>
      <point x="350" y="156"/>
      <point x="372" y="156" type="curve" smooth="yes"/>
      <point x="391" y="156"/>
      <point x="403" y="167"/>
      <point x="403" y="184" type="curve" smooth="yes"/>
      <point x="403" y="201"/>
      <point x="392" y="209"/>
      <point x="379" y="209" type="curve" smooth="yes"/>
      <point x="369" y="209"/>
      <point x="362" y="204"/>
    </contour>
  </outline>
</glyph>
<glyph name="threequarters" format="1">
  <advance width="600"/>
  <unicode hex="00BE"/>
  <note>
    threequarters
  </note>
  <outline>
    <contour>
      <point x="101" y="-13" type="line"/>
      <point x="532" y="590" type="line"/>
      <point x="512" y="603" type="line"/>
      <point x="81" y="1" type="line"/>
    </contour>
    <contour>
      <point x="70" y="389" type="curve"/>
      <point x="70" y="362"/>
      <point x="110" y="338"/>
      <point x="159" y="338" type="curve" smooth="yes"/>
      <point x="202" y="338"/>
      <point x="257" y="364"/>
      <point x="257" y="415" type="curve" smooth="yes"/>
      <point x="257" y="461"/>
      <point x="207" y="484"/>
      <point x="159" y="478" type="curve"/>
      <point x="143" y="465" type="line"/>
      <point x="128" y="484" type="line"/>
      <point x="228" y="566" type="line"/>
      <point x="87" y="566" type="line"/>
      <point x="75" y="514" type="line"/>
      <point x="51" y="517" type="line"/>
      <point x="67" y="590" type="line"/>
      <point x="273" y="590" type="line"/>
      <point x="273" y="572" type="line"/>
      <point x="186" y="501" type="line"/>
      <point x="240" y="501"/>
      <point x="281" y="464"/>
      <point x="281" y="415" type="curve" smooth="yes"/>
      <point x="281" y="348"/>
      <point x="214" y="314"/>
      <point x="159" y="314" type="curve" smooth="yes"/>
      <point x="106" y="314"/>
      <point x="49" y="341"/>
      <point x="49" y="390" type="curve" smooth="yes"/>
      <point x="49" y="411"/>
      <point x="62" y="427"/>
      <point x="84" y="427" type="curve" smooth="yes"/>
      <point x="103" y="427"/>
      <point x="115" y="416"/>
      <point x="115" y="399" type="curve" smooth="yes"/>
      <point x="115" y="382"/>
      <point x="104" y="374"/>
      <point x="91" y="374" type="curve" smooth="yes"/>
      <point x="81" y="374"/>
      <point x="74" y="379"/>
    </contour>
    <contour>
      <point x="290" y="60" type="curve"/>
      <point x="290" y="33" type="line"/>
      <point x="457" y="33" type="line"/>
      <point x="457" y="-14" type="line"/>
      <point x="481" y="-14" type="line"/>
      <point x="481" y="33" type="line"/>
      <point x="555" y="33" type="line"/>
      <point x="555" y="57" type="line"/>
      <point x="481" y="57" type="line"/>
      <point x="481" y="185" type="line"/>
      <point x="457" y="185" type="line"/>
      <point x="457" y="57" type="line"/>
      <point x="318" y="57" type="line"/>
      <point x="381" y="141"/>
      <point x="410" y="193"/>
      <point x="431" y="261" type="curve"/>
      <point x="409" y="268" type="line"/>
      <point x="387" y="195"/>
      <point x="345" y="129"/>
    </contour>
  </outline>
</glyph>
<glyph name="multiply" format="1">
  <advance width="600"/>
  <unicode hex="00D7"/>
  <note>
    multiply
  </note>
  <outline>
    <contour>
      <point x="137" y="356" type="line"/>
      <point x="159" y="378" type="line"/>
      <point x="300" y="236" type="line"/>
      <point x="441" y="378" type="line"/>
      <point x="463" y="356" type="line"/>
      <point x="321" y="215" type="line"/>
      <point x="463" y="74" type="line"/>
      <point x="441" y="52" type="line"/>
      <point x="300" y="194" type="line"/>
      <point x="159" y="52" type="line"/>
      <point x="137" y="74" type="line"/>
      <point x="279" y="215" type="line"/>
    </contour>
  </outline>
</glyph>
<glyph name="germandbls" format="1">
  <advance width="600"/>
  <unicode hex="00DF"/>
  <outline>
    <contour>
      <point x="216.6" y="389.4" type="line"/>
      <point x="223.2" y="419.4" type="line"/>
      <point x="84.3" y="419.4" type="line"/>
      <point x="78.6" y="389.4" type="line"/>
    </contour>
    <contour>
      <point x="403.2" y="236.4" type="curve" smooth="yes"/>
      <point x="361.2" y="261.6"/>
      <point x="338.4" y="279.6"/>
      <point x="337.2" y="315.6" type="curve"/>
      <point x="338.4" y="346.8"/>
      <point x="366.9" y="363.9"/>
      <point x="408.9" y="384.3" type="curve" smooth="yes"/>
      <point x="477.3" y="415.5"/>
      <point x="501.6" y="438"/>
      <point x="501.6" y="489.6" type="curve" smooth="yes"/>
      <point x="501.6" y="604.8"/>
      <point x="329.7" y="643.8"/>
      <point x="261.9" y="550.5" type="curve" smooth="yes"/>
      <point x="212.4" y="482.4"/>
      <point x="196.8" y="315.6"/>
      <point x="123.6" y="-54" type="curve" smooth="yes"/>
      <point x="111" y="-128.1"/>
      <point x="50.1" y="-87"/>
      <point x="-3.6" y="-36" type="curve"/>
      <point x="-25.2" y="-57.6" type="line"/>
      <point x="60" y="-140.4"/>
      <point x="136.5" y="-153.9"/>
      <point x="153" y="-60" type="curve" smooth="yes"/>
      <point x="226.2" y="308.4"/>
      <point x="239.1" y="471"/>
      <point x="287.1" y="534" type="curve" smooth="yes"/>
      <point x="338.1" y="601.2"/>
      <point x="471.6" y="578.1"/>
      <point x="471.6" y="489.6" type="curve" smooth="yes"/>
      <point x="471.6" y="448.8"/>
      <point x="444" y="433.2"/>
      <point x="396" y="411.6" type="curve" smooth="yes"/>
      <point x="336" y="384"/>
      <point x="307.2" y="357.6"/>
      <point x="307.2" y="315.6" type="curve" smooth="yes"/>
      <point x="307.2" y="258"/>
      <point x="351.6" y="231.6"/>
      <point x="388.8" y="210" type="curve" smooth="yes"/>
      <point x="438" y="181.2"/>
      <point x="466.8" y="154.8"/>
      <point x="466.8" y="106.8" type="curve" smooth="yes"/>
      <point x="466.8" y="26.4"/>
      <point x="338.4" y="-12"/>
      <point x="258" y="48" type="curve"/>
      <point x="238.8" y="25.2" type="line"/>
      <point x="333.6" y="-51.6"/>
      <point x="496.8" y="-2.4"/>
      <point x="496.8" y="106.8" type="curve" smooth="yes"/>
      <point x="496.8" y="170.4"/>
      <point x="462" y="201.6"/>
    </contour>
  </outline>
</glyph>
<glyph name="divide" format="1">
  <advance width="600"/>
  <unicode hex="00F7"/>
  <note>
    divide
  </note>
  <outline>
    <contour>
      <point x="301" y="322" type="curve" smooth="yes"/>
      <point x="333" y="322"/>
      <point x="360" y="349"/>
      <point x="360" y="381" type="curve" smooth="yes"/>
      <point x="360" y="414"/>
      <point x="334" y="441"/>
      <point x="301" y="441" type="curve" smooth="yes"/>
      <point x="268" y="441"/>
      <point x="240" y="414"/>
      <point x="240" y="381" type="curve" smooth="yes"/>
      <point x="240" y="350"/>
      <point x="268" y="322"/>
    </contour>
    <contour>
      <point x="541" y="200" type="line"/>
      <point x="60" y="200" type="line"/>
      <point x="60" y="230" type="line"/>
      <point x="541" y="230" type="line"/>
    </contour>
    <contour>
      <point x="343" y="7" type="curve"/>
      <point x="354" y="18"/>
      <point x="360" y="32"/>
      <point x="360" y="48" type="curve" smooth="yes"/>
      <point x="360" y="80"/>
      <point x="333" y="108"/>
      <point x="301" y="108" type="curve" smooth="yes"/>
      <point x="268" y="108"/>
      <point x="240" y="80"/>
      <point x="240" y="48" type="curve" smooth="yes"/>
      <point x="240" y="16"/>
      <point x="268" y="-11"/>
      <point x="301" y="-11" type="curve" smooth="yes"/>
      <point x="318" y="-11"/>
      <point x="332" y="-5"/>
    </contour>
  </outline>
</glyph>
<glyph name="oslash" format="1">
  <advance width="600"/>
  <unicode hex="00F8"/>
  <outline>
    <contour>
      <point x="517.5" y="487.8" type="line"/>
      <point x="493.5" y="507" type="line"/>
      <point x="67.5" y="-90.6" type="line"/>
      <point x="91.5" y="-109.8" type="line"/>
    </contour>
    <component base="o"/>
  </outline>
</glyph>
<glyph name="thorn" format="1">
  <advance width="600"/>
  <unicode hex="00FE"/>
  <outline>
    <contour>
      <point x="-35.1" y="-129.6" type="line"/>
      <point x="-41.7" y="-159.6" type="line"/>
      <point x="168.3" y="-159.6" type="line"/>
      <point x="174.9" y="-129.6" type="line"/>
    </contour>
    <contour>
      <point x="205.2" y="590.4" type="line"/>
      <point x="51.6" y="-130.8" type="line"/>
      <point x="81.6" y="-130.8" type="line"/>
      <point x="235.2" y="590.4" type="line"/>
    </contour>
    <component base="o" xOffset="55"/>
    <component base="Swash" xOffset="-187"/>
  </outline>
</glyph>
<glyph name="dotlessi" format="1">
  <advance width="600"/>
  <unicode hex="0131"/>
  <outline>
    <contour>
      <point x="114.3" y="373.8" type="curve"/>
      <point x="133.2" y="350.4" type="line"/>
      <point x="182.1" y="399"/>
      <point x="312.9" y="447.9"/>
      <point x="307.2" y="368.4" type="curve" smooth="yes"/>
      <point x="303" y="310"/>
      <point x="195" y="164"/>
      <point x="195.6" y="84" type="curve" smooth="yes"/>
      <point x="197" y="-43"/>
      <point x="377" y="-41"/>
      <point x="495.6" y="57.6" type="curve"/>
      <point x="476.4" y="80.4" type="line"/>
      <point x="382" y="4"/>
      <point x="223" y="-16"/>
      <point x="224.4" y="87.6" type="curve" smooth="yes"/>
      <point x="225" y="149"/>
      <point x="335" y="320"/>
      <point x="337.2" y="370.8" type="curve" smooth="yes"/>
      <point x="342" y="482.7"/>
      <point x="200.7" y="447.3"/>
    </contour>
    <contour>
      <point x="331.2" y="444" type="move" name="top"/>
    </contour>
  </outline>
</glyph>
<glyph name="circumflex" format="1">
  <advance width="600"/>
  <unicode hex="02C6"/>
  <outline>
    <contour>
      <point x="390" y="591.6" type="line"/>
      <point x="567.6" y="484.8" type="line"/>
      <point x="561.6" y="471.6" type="line"/>
      <point x="390" y="555.6" type="line"/>
      <point x="162" y="471.6" type="line"/>
      <point x="156" y="484.8" type="line"/>
    </contour>
    <contour>
      <point x="390" y="442.8" type="move" name="_top"/>
    </contour>
  </outline>
</glyph>
<glyph name="caron" format="1">
  <advance width="600"/>
  <unicode hex="02C7"/>
  <outline>
    <contour>
      <point x="333.6" y="471.6" type="line"/>
      <point x="153.6" y="577.2" type="line"/>
      <point x="159.6" y="590.4" type="line"/>
      <point x="333.6" y="507.6" type="line"/>
      <point x="559.2" y="590.4" type="line"/>
      <point x="565.2" y="577.2" type="line"/>
    </contour>
    <contour>
      <point x="337.2" y="442.8" type="move" name="_top"/>
    </contour>
  </outline>
</glyph>
<glyph name="dotaccent" format="1">
  <advance width="600"/>
  <unicode hex="02D9"/>
  <outline>
    <contour>
      <point x="393.6" y="504" type="curve"/>
      <point x="403" y="514"/>
      <point x="408" y="526"/>
      <point x="409.2" y="538.8" type="curve" smooth="yes"/>
      <point x="412" y="566"/>
      <point x="385" y="590"/>
      <point x="357.6" y="590.4" type="curve" smooth="yes"/>
      <point x="329" y="591"/>
      <point x="305" y="566"/>
      <point x="306" y="538.8" type="curve" smooth="yes"/>
      <point x="307" y="512"/>
      <point x="329" y="487"/>
      <point x="357.6" y="488.4" type="curve" smooth="yes"/>
      <point x="371" y="489"/>
      <point x="383" y="493"/>
    </contour>
    <contour>
      <point x="356" y="442" type="move" name="_top"/>
    </contour>
  </outline>
</glyph>
<glyph name="tilde" format="1">
  <advance width="600"/>
  <unicode hex="02DC"/>
  <outline>
    <contour>
      <point x="441.6" y="525.6" type="curve" smooth="yes"/>
      <point x="426" y="526"/>
      <point x="412" y="531"/>
      <point x="399.6" y="543.6" type="curve"/>
      <point x="371" y="568"/>
      <point x="340" y="598"/>
      <point x="298.8" y="597.6" type="curve" smooth="yes"/>
      <point x="268" y="597"/>
      <point x="230" y="572"/>
      <point x="184.8" y="519.6" type="curve"/>
      <point x="206.4" y="500.4" type="line"/>
      <point x="245" y="545"/>
      <point x="276" y="568"/>
      <point x="298.8" y="567.6" type="curve" smooth="yes"/>
      <point x="314" y="567"/>
      <point x="328" y="562"/>
      <point x="342" y="549.6" type="curve" smooth="yes"/>
      <point x="369" y="526"/>
      <point x="400" y="495"/>
      <point x="441.6" y="495.6" type="curve" smooth="yes"/>
      <point x="473" y="496"/>
      <point x="511" y="521"/>
      <point x="554.4" y="572.4" type="curve"/>
      <point x="532.8" y="591.6" type="line"/>
      <point x="497" y="547"/>
      <point x="466" y="525"/>
    </contour>
  </outline>
</glyph>
<glyph name="uni03A9" format="1">
  <advance width="600"/>
  <unicode hex="03A9"/>
  <note>
    uni03A9
  </note>
  <outline>
    <contour>
      <point x="236" y="0" type="line"/>
      <point x="236" y="39" type="line"/>
      <point x="132" y="184"/>
      <point x="80" y="278"/>
      <point x="80" y="366" type="curve" smooth="yes"/>
      <point x="80" y="414"/>
      <point x="99" y="462"/>
      <point x="134" y="501" type="curve" smooth="yes"/>
      <point x="171" y="542"/>
      <point x="227" y="567"/>
      <point x="298" y="567" type="curve" smooth="yes"/>
      <point x="369" y="567"/>
      <point x="425" y="542"/>
      <point x="462" y="501" type="curve" smooth="yes"/>
      <point x="497" y="462"/>
      <point x="516" y="414"/>
      <point x="516" y="366" type="curve" smooth="yes"/>
      <point x="516" y="283"/>
      <point x="460" y="179"/>
      <point x="360" y="39" type="curve"/>
      <point x="360" y="0" type="line"/>
      <point x="564" y="0" type="line"/>
      <point x="564" y="32" type="line"/>
      <point x="400" y="32" type="line"/>
      <point x="420" y="65"/>
      <point x="440" y="97"/>
      <point x="459" y="130" type="curve" smooth="yes"/>
      <point x="497" y="194"/>
      <point x="548" y="282"/>
      <point x="548" y="365" type="curve" smooth="yes"/>
      <point x="548" y="418"/>
      <point x="527" y="477"/>
      <point x="487" y="521" type="curve" smooth="yes"/>
      <point x="443" y="569"/>
      <point x="379" y="599"/>
      <point x="298" y="599" type="curve" smooth="yes"/>
      <point x="217" y="599"/>
      <point x="152" y="569"/>
      <point x="108" y="521" type="curve" smooth="yes"/>
      <point x="68" y="477"/>
      <point x="47" y="418"/>
      <point x="47" y="365" type="curve" smooth="yes"/>
      <point x="47" y="274"/>
      <point x="90" y="200"/>
      <point x="174" y="67" type="curve" smooth="yes"/>
      <point x="196" y="32" type="line"/>
      <point x="32" y="32" type="line"/>
      <point x="32" y="0" type="line"/>
    </contour>
  </outline>
</glyph>
<glyph name="endash" format="1">
  <advance width="600"/>
  <unicode hex="2013"/>
  <note>
    endash
  </note>
  <outline>
    <contour>
      <point x="125" y="277" type="line"/>
      <point x="485" y="277" type="line"/>
      <point x="485.1" y="246.9" type="line"/>
      <point x="125.1" y="246.9" type="line"/>
    </contour>
  </outline>
</glyph>
<glyph name="dagger" format="1">
  <advance width="600"/>
  <unicode hex="2020"/>
  <note>
    dagger
  </note>
  <outline>
    <contour>
      <point x="360.9" y="603" type="line"/>
      <point x="212.4" y="-90.6" type="line"/>
      <point x="242.4" y="-90.6" type="line"/>
      <point x="390.9" y="603" type="line"/>
    </contour>
    <contour>
      <point x="318.9" y="402.9" type="curve"/>
      <point x="327.9" y="443.1" type="line"/>
      <point x="313.2" y="453.3"/>
      <point x="274.2" y="471.3"/>
      <point x="244.8" y="471.3" type="curve" smooth="yes"/>
      <point x="182.7" y="471.3"/>
      <point x="134.7" y="448.8"/>
      <point x="135.9" y="410.4" type="curve" smooth="yes"/>
      <point x="136.8" y="385.5"/>
      <point x="150.9" y="357"/>
      <point x="182.7" y="357" type="curve" smooth="yes"/>
      <point x="220.5" y="357"/>
      <point x="234.9" y="387.6"/>
      <point x="234.6" y="410.7" type="curve" smooth="yes"/>
      <point x="234.6" y="414"/>
      <point x="232.5" y="426.6"/>
      <point x="223.2" y="439.5" type="curve"/>
      <point x="227.4" y="440.4"/>
      <point x="232.5" y="441"/>
      <point x="238.2" y="441" type="curve" smooth="yes"/>
      <point x="257.1" y="441"/>
      <point x="307.8" y="426.6"/>
    </contour>
    <contour>
      <point x="344.4" y="397.2" type="line"/>
      <point x="360" y="418.2"/>
      <point x="412.5" y="421.5"/>
      <point x="431.1" y="417.6" type="curve" smooth="yes"/>
      <point x="436.8" y="416.4"/>
      <point x="441.6" y="414.9"/>
      <point x="445.5" y="413.1" type="curve"/>
      <point x="433.8" y="402.6"/>
      <point x="429" y="390.6"/>
      <point x="428.4" y="387.3" type="curve" smooth="yes"/>
      <point x="424.2" y="364.8"/>
      <point x="431.1" y="331.8"/>
      <point x="468" y="324" type="curve" smooth="yes"/>
      <point x="498.9" y="317.4"/>
      <point x="518.7" y="342.3"/>
      <point x="524.7" y="366.6" type="curve" smooth="yes"/>
      <point x="534" y="403.8"/>
      <point x="491.7" y="436.2"/>
      <point x="431.1" y="448.8" type="curve" smooth="yes"/>
      <point x="402.3" y="454.8"/>
      <point x="360.3" y="445.5"/>
      <point x="343.8" y="438.3" type="curve"/>
    </contour>
  </outline>
</glyph>
<glyph name="daggerdbl" format="1">
  <advance width="600"/>
  <unicode hex="2021"/>
  <note>
    daggerdbl
  </note>
  <outline>
    <contour>
      <point x="318.9" y="402.9" type="curve"/>
      <point x="327.9" y="443.1" type="line"/>
      <point x="313.2" y="453.3"/>
      <point x="274.2" y="471.3"/>
      <point x="244.8" y="471.3" type="curve" smooth="yes"/>
      <point x="182.7" y="471.3"/>
      <point x="134.7" y="448.8"/>
      <point x="135.9" y="410.4" type="curve" smooth="yes"/>
      <point x="136.8" y="385.5"/>
      <point x="150.9" y="357"/>
      <point x="182.7" y="357" type="curve" smooth="yes"/>
      <point x="220.5" y="357"/>
      <point x="234.9" y="387.6"/>
      <point x="234.6" y="410.7" type="curve" smooth="yes"/>
      <point x="234.6" y="414"/>
      <point x="232.5" y="426.6"/>
      <point x="223.2" y="439.5" type="curve"/>
      <point x="227.4" y="440.4"/>
      <point x="232.5" y="441"/>
      <point x="238.2" y="441" type="curve" smooth="yes"/>
      <point x="257.1" y="441"/>
      <point x="307.8" y="426.6"/>
    </contour>
    <contour>
      <point x="344.4" y="397.2" type="line"/>
      <point x="360" y="418.2"/>
      <point x="412.5" y="421.5"/>
      <point x="431.1" y="417.6" type="curve" smooth="yes"/>
      <point x="436.8" y="416.4"/>
      <point x="441.6" y="414.9"/>
      <point x="445.5" y="413.1" type="curve"/>
      <point x="433.8" y="402.6"/>
      <point x="429" y="390.6"/>
      <point x="428.4" y="387.3" type="curve" smooth="yes"/>
      <point x="424.2" y="364.8"/>
      <point x="431.1" y="331.8"/>
      <point x="468" y="324" type="curve" smooth="yes"/>
      <point x="498.9" y="317.4"/>
      <point x="518.7" y="342.3"/>
      <point x="524.7" y="366.6" type="curve" smooth="yes"/>
      <point x="534" y="403.8"/>
      <point x="491.7" y="436.2"/>
      <point x="431.1" y="448.8" type="curve" smooth="yes"/>
      <point x="402.3" y="454.8"/>
      <point x="360.3" y="445.5"/>
      <point x="343.8" y="438.3" type="curve"/>
    </contour>
    <contour>
      <point x="360.9" y="603" type="line"/>
      <point x="212.4" y="-90.6" type="line"/>
      <point x="242.4" y="-90.6" type="line"/>
      <point x="390.9" y="603" type="line"/>
    </contour>
    <contour>
      <point x="286.5" y="242.4" type="curve"/>
      <point x="295.5" y="282.6" type="line"/>
      <point x="280.8" y="292.8"/>
      <point x="241.8" y="310.8"/>
      <point x="212.4" y="310.8" type="curve" smooth="yes"/>
      <point x="150.3" y="310.8"/>
      <point x="102" y="288.3"/>
      <point x="103.5" y="249.9" type="curve" smooth="yes"/>
      <point x="104.4" y="225"/>
      <point x="118.5" y="196.5"/>
      <point x="150.3" y="196.5" type="curve" smooth="yes"/>
      <point x="188.1" y="196.5"/>
      <point x="202.2" y="227.1"/>
      <point x="202.2" y="250.2" type="curve" smooth="yes"/>
      <point x="202.2" y="253.5"/>
      <point x="200.1" y="266.1"/>
      <point x="190.8" y="279" type="curve"/>
      <point x="195" y="279.9"/>
      <point x="200.1" y="280.5"/>
      <point x="205.8" y="280.5" type="curve" smooth="yes"/>
      <point x="224.7" y="280.5"/>
      <point x="275.4" y="266.1"/>
    </contour>
    <contour>
      <point x="312" y="236.7" type="line"/>
      <point x="327.6" y="257.7"/>
      <point x="380.1" y="261"/>
      <point x="398.7" y="257.1" type="curve" smooth="yes"/>
      <point x="404.4" y="255.9"/>
      <point x="409.2" y="254.4"/>
      <point x="413.1" y="252.6" type="curve"/>
      <point x="401.4" y="242.1"/>
      <point x="396.6" y="230.1"/>
      <point x="396" y="226.8" type="curve" smooth="yes"/>
      <point x="391.8" y="204.3"/>
      <point x="398.7" y="171.3"/>
      <point x="435.6" y="163.5" type="curve" smooth="yes"/>
      <point x="466.5" y="156.9"/>
      <point x="486.3" y="181.8"/>
      <point x="492.3" y="206.1" type="curve" smooth="yes"/>
      <point x="501.6" y="243.3"/>
      <point x="459.3" y="275.7"/>
      <point x="398.7" y="288.3" type="curve" smooth="yes"/>
      <point x="369.9" y="294.3"/>
      <point x="327.9" y="285"/>
      <point x="311.4" y="277.8" type="curve"/>
    </contour>
  </outline>
</glyph>
<glyph name="ellipsis" format="1">
  <advance width="600"/>
  <unicode hex="2026"/>
  <outline>
    <contour>
      <point x="51.9" y="-12.9" type="curve" smooth="yes"/>
      <point x="89.1" y="-12.9"/>
      <point x="117" y="18"/>
      <point x="117" y="53.1" type="curve" smooth="yes"/>
      <point x="117" y="89.1"/>
      <point x="89.1" y="120"/>
      <point x="51.9" y="120" type="curve" smooth="yes"/>
      <point x="15" y="120"/>
      <point x="-15.9" y="89.1"/>
      <point x="-15.9" y="53.1" type="curve" smooth="yes"/>
      <point x="-15.9" y="18"/>
      <point x="15" y="-12.9"/>
    </contour>
    <contour>
      <point x="266.1" y="-12.9" type="curve" smooth="yes"/>
      <point x="303" y="-12.9"/>
      <point x="330.9" y="18"/>
      <point x="330.9" y="53.1" type="curve" smooth="yes"/>
      <point x="330.9" y="89.1"/>
      <point x="303" y="120"/>
      <point x="266.1" y="120" type="curve" smooth="yes"/>
      <point x="228.9" y="120"/>
      <point x="198" y="89.1"/>
      <point x="198" y="53.1" type="curve" smooth="yes"/>
      <point x="198" y="18"/>
      <point x="228.9" y="-12.9"/>
    </contour>
    <contour>
      <point x="479.1" y="-12.9" type="curve" smooth="yes"/>
      <point x="516" y="-12.9"/>
      <point x="543.9" y="18"/>
      <point x="543.9" y="53.1" type="curve" smooth="yes"/>
      <point x="543.9" y="89.1"/>
      <point x="516" y="120"/>
      <point x="479.1" y="120" type="curve" smooth="yes"/>
      <point x="441.9" y="120"/>
      <point x="411" y="89.1"/>
      <point x="411" y="53.1" type="curve" smooth="yes"/>
      <point x="411" y="18"/>
      <point x="441.9" y="-12.9"/>
    </contour>
  </outline>
</glyph>
<glyph name="guilsinglleft" format="1">
  <advance width="600"/>
  <unicode hex="2039"/>
  <outline>
    <contour>
      <point x="427.8" y="425.1" type="line"/>
      <point x="407.1" y="447.9" type="line"/>
      <point x="183" y="251.1" type="line"/>
      <point x="327.3" y="54.6" type="line"/>
      <point x="352.8" y="74.7" type="line"/>
      <point x="226.5" y="249.6" type="line"/>
    </contour>
  </outline>
</glyph>
<glyph name="guilsinglright" format="1">
  <advance width="600"/>
  <unicode hex="203A"/>
  <outline>
    <contour>
      <point x="171" y="77.4" type="line"/>
      <point x="191.7" y="54.6" type="line"/>
      <point x="415.8" y="251.4" type="line"/>
      <point x="271.5" y="447.9" type="line"/>
      <point x="246" y="427.8" type="line"/>
      <point x="372.3" y="252.9" type="line"/>
    </contour>
  </outline>
</glyph>
<glyph name="fraction" format="1">
  <advance width="600"/>
  <unicode hex="2044"/>
  <note>
    fraction
  </note>
  <outline>
    <contour>
      <point x="512" y="603" type="line"/>
      <point x="81" y="1" type="line"/>
      <point x="101" y="-13" type="line"/>
      <point x="532" y="590" type="line"/>
    </contour>
  </outline>
</glyph>
<glyph name="arrowleft" format="1">
  <advance width="600"/>
  <unicode hex="2190"/>
  <note>
    arrowleft
  </note>
  <outline>
    <contour>
      <point x="14" y="204" type="line"/>
      <point x="110" y="157"/>
      <point x="177" y="100"/>
      <point x="215" y="32" type="curve"/>
      <point x="237" y="49" type="line"/>
      <point x="202" y="113"/>
      <point x="129" y="178"/>
      <point x="74" y="199" type="curve"/>
      <point x="586" y="198" type="line"/>
      <point x="586" y="228" type="line"/>
      <point x="74" y="229" type="line"/>
      <point x="129" y="250"/>
      <point x="202" y="315"/>
      <point x="237" y="379" type="curve"/>
      <point x="215" y="396" type="line"/>
      <point x="177" y="328"/>
      <point x="110" y="271"/>
      <point x="14" y="224" type="curve"/>
    </contour>
  </outline>
</glyph>
<glyph name="arrowup" format="1">
  <advance width="600"/>
  <unicode hex="2191"/>
  <note>
    arrowup
  </note>
  <outline>
    <contour>
      <point x="290" y="572" type="line"/>
      <point x="243" y="476"/>
      <point x="186" y="409"/>
      <point x="118" y="371" type="curve"/>
      <point x="135" y="349" type="line"/>
      <point x="199" y="384"/>
      <point x="264" y="457"/>
      <point x="285" y="512" type="curve"/>
      <point x="284" y="0" type="line"/>
      <point x="314" y="0" type="line"/>
      <point x="315" y="512" type="line"/>
      <point x="336" y="457"/>
      <point x="401" y="384"/>
      <point x="465" y="349" type="curve"/>
      <point x="482" y="371" type="line"/>
      <point x="414" y="409"/>
      <point x="357" y="476"/>
      <point x="310" y="572" type="curve"/>
    </contour>
  </outline>
</glyph>
<glyph name="partialdiff" format="1">
  <advance width="600"/>
  <unicode hex="2202"/>
  <note>
    partialdiff
  </note>
  <outline>
    <contour>
      <point x="207" y="574" type="line"/>
      <point x="236" y="566" type="line" smooth="yes"/>
      <point x="373" y="529"/>
      <point x="455" y="437"/>
      <point x="480" y="292" type="curve"/>
      <point x="443" y="352"/>
      <point x="376" y="391"/>
      <point x="300" y="391" type="curve" smooth="yes"/>
      <point x="195" y="391"/>
      <point x="108" y="300"/>
      <point x="108" y="191" type="curve" smooth="yes"/>
      <point x="108" y="72"/>
      <point x="200" y="-14"/>
      <point x="305" y="-14" type="curve" smooth="yes"/>
      <point x="426" y="-14"/>
      <point x="510" y="83"/>
      <point x="510" y="216" type="curve" smooth="yes"/>
      <point x="510" y="407"/>
      <point x="428" y="546"/>
      <point x="244" y="595" type="curve" smooth="yes"/>
      <point x="214" y="603" type="line"/>
    </contour>
    <contour>
      <point x="480" y="206" type="curve" smooth="yes"/>
      <point x="480" y="105"/>
      <point x="410" y="16"/>
      <point x="305" y="16" type="curve" smooth="yes"/>
      <point x="218" y="16"/>
      <point x="138" y="88"/>
      <point x="138" y="191" type="curve" smooth="yes"/>
      <point x="138" y="287"/>
      <point x="211" y="361"/>
      <point x="300" y="361" type="curve" smooth="yes"/>
      <point x="395" y="361"/>
      <point x="480" y="289"/>
    </contour>
  </outline>
</glyph>
<glyph name="integral" format="1">
  <advance width="600"/>
  <unicode hex="222B"/>
  <note>
    integral
  </note>
  <outline>
    <contour>
      <point x="502.8" y="602.4" type="curve" smooth="yes"/>
      <point x="459.6" y="603.6"/>
      <point x="417.6" y="582"/>
      <point x="382.8" y="547.2" type="curve" smooth="yes"/>
      <point x="332.4" y="496.8"/>
      <point x="315.6" y="454.8"/>
      <point x="289.2" y="304.8" type="curve" smooth="yes"/>
      <point x="244.8" y="60" type="line" smooth="yes"/>
      <point x="224.4" y="-54"/>
      <point x="195.6" y="-128.4"/>
      <point x="99.6" y="-130.8" type="curve" smooth="yes"/>
      <point x="63.6" y="-132"/>
      <point x="37.2" y="-118.8"/>
      <point x="25.2" y="-91.2" type="curve"/>
      <point x="42" y="-93.6"/>
      <point x="75.6" y="-87.6"/>
      <point x="73.2" y="-38.4" type="curve" smooth="yes"/>
      <point x="72" y="-10.8"/>
      <point x="57.6" y="0"/>
      <point x="27.6" y="0" type="curve" smooth="yes"/>
      <point x="0" y="0"/>
      <point x="-15.6" y="-18"/>
      <point x="-16.8" y="-50.4" type="curve" smooth="yes"/>
      <point x="-19.2" y="-120"/>
      <point x="36" y="-159.6"/>
      <point x="99.6" y="-159.6" type="curve" smooth="yes"/>
      <point x="208.8" y="-159.6"/>
      <point x="249.6" y="-75.6"/>
      <point x="274.8" y="60" type="curve" smooth="yes"/>
      <point x="294" y="165.6"/>
      <point x="307.2" y="244.8"/>
      <point x="319.2" y="304.8" type="curve" smooth="yes"/>
      <point x="346.8" y="442.8"/>
      <point x="360" y="483.6"/>
      <point x="402" y="525.6" type="curve" smooth="yes"/>
      <point x="432" y="555.6"/>
      <point x="465.6" y="573.6"/>
      <point x="504" y="572.4" type="curve" smooth="yes"/>
      <point x="556.8" y="570"/>
      <point x="601.2" y="531.6"/>
      <point x="602.4" y="510" type="curve"/>
      <point x="588" y="514.8"/>
      <point x="549.6" y="511.2"/>
      <point x="549.6" y="458.4" type="curve" smooth="yes"/>
      <point x="549.6" y="430.8"/>
      <point x="577.2" y="420"/>
      <point x="598.8" y="420" type="curve" smooth="yes"/>
      <point x="614.4" y="420"/>
      <point x="638.4" y="428.4"/>
      <point x="639.6" y="470.4" type="curve" smooth="yes"/>
      <point x="642" y="526.8"/>
      <point x="595.2" y="601.2"/>
    </contour>
  </outline>
</glyph>
<glyph name="lessequal" format="1">
  <advance width="600"/>
  <unicode hex="2264"/>
  <note>
    lessequal
  </note>
  <outline>
    <contour>
      <point x="86" y="371" type="line"/>
      <point x="505" y="526" type="line"/>
      <point x="515" y="499" type="line"/>
      <point x="115" y="352" type="line"/>
      <point x="515" y="205" type="line"/>
      <point x="505" y="178" type="line"/>
      <point x="86" y="333" type="line"/>
    </contour>
    <contour>
      <point x="515" y="34" type="line"/>
      <point x="85" y="34" type="line"/>
      <point x="85" y="64" type="line"/>
      <point x="515" y="64" type="line"/>
    </contour>
  </outline>
</glyph>
<glyph name="uniF8FF" format="1">
  <advance width="600"/>
  <unicode hex="F8FF"/>
  <outline>
    <contour>
      <point x="317" y="0" type="curve" smooth="yes"/>
      <point x="479" y="0"/>
      <point x="613" y="132"/>
      <point x="613.2" y="294" type="curve" smooth="yes"/>
      <point x="613" y="456"/>
      <point x="479" y="589"/>
      <point x="316.8" y="589.2" type="curve" smooth="yes"/>
      <point x="156" y="589"/>
      <point x="24" y="456"/>
      <point x="24" y="294" type="curve" smooth="yes"/>
      <point x="24" y="132"/>
      <point x="156" y="0"/>
    </contour>
  </outline>
</glyph>
<glyph name="Femme" format="1">
  <advance width="600"/>
  <note>
    Femme
  </note>
  <outline>
    <contour>
      <point x="315" y="147" type="line"/>
      <point x="435" y="155"/>
      <point x="529" y="253"/>
      <point x="529" y="376" type="curve" smooth="yes"/>
      <point x="529" y="501"/>
      <point x="428" y="603"/>
      <point x="301" y="603" type="curve" smooth="yes"/>
      <point x="174" y="603"/>
      <point x="72" y="501"/>
      <point x="72" y="376" type="curve" smooth="yes"/>
      <point x="72" y="253"/>
      <point x="165" y="156"/>
      <point x="285" y="148" type="curve"/>
      <point x="285" y="70" type="line"/>
      <point x="85" y="70" type="line"/>
      <point x="85" y="40" type="line"/>
      <point x="285" y="40" type="line"/>
      <point x="285" y="-160" type="line"/>
      <point x="315" y="-160" type="line"/>
      <point x="315" y="40" type="line"/>
      <point x="515" y="40" type="line"/>
      <point x="515" y="70" type="line"/>
      <point x="315" y="70" type="line"/>
    </contour>
    <contour>
      <point x="102" y="376" type="curve" smooth="yes"/>
      <point x="102" y="485"/>
      <point x="190" y="573"/>
      <point x="301" y="573" type="curve" smooth="yes"/>
      <point x="410" y="573"/>
      <point x="499" y="485"/>
      <point x="499" y="376" type="curve" smooth="yes"/>
      <point x="499" y="265"/>
      <point x="410" y="177"/>
      <point x="301" y="177" type="curve" smooth="yes"/>
      <point x="190" y="177"/>
      <point x="102" y="265"/>
    </contour>
  </outline>
</glyph>
<glyph name="L.ss01" format="1">
  <advance width="600"/>
  <outline>
    <contour>
      <point x="193.2" y="30" type="line"/>
      <point x="300" y="560.4" type="line"/>
      <point x="476.4" y="560.4" type="line"/>
      <point x="482.4" y="590.4" type="line"/>
      <point x="207.6" y="590.4" type="line"/>
      <point x="201.6" y="560.4" type="line"/>
      <point x="268.8" y="560.4" type="line"/>
      <point x="162" y="30" type="line"/>
      <point x="82.8" y="30" type="line"/>
      <point x="76.8" y="0" type="line"/>
      <point x="536.4" y="0" type="line"/>
      <point x="576" y="210" type="line"/>
      <point x="543.6" y="213.6" type="line"/>
      <point x="508.8" y="30" type="line"/>
    </contour>
    <component base="Swash" xOffset="-159"/>
    <contour>
      <point x="340.8" y="589.2" type="move" name="top"/>
    </contour>
  </outline>
</glyph>
<glyph name="VTF" format="1">
  <advance width="600"/>
  <outline>
    <contour>
      <point x="106.8" y="599.7" type="curve" smooth="yes"/>
      <point x="14.7" y="598.2"/>
      <point x="-33" y="524.1"/>
      <point x="-30.6" y="457.5" type="curve" smooth="yes"/>
      <point x="-29.4" y="425.1"/>
      <point x="-5.4" y="409.8"/>
      <point x="16.5" y="408.6" type="curve" smooth="yes"/>
      <point x="42.9" y="407.1"/>
      <point x="69" y="429.9"/>
      <point x="68.7" y="456.3" type="curve" smooth="yes"/>
      <point x="68.1" y="507"/>
      <point x="21.6" y="512.4"/>
      <point x="7.2" y="507.3" type="curve"/>
      <point x="8.7" y="529.2"/>
      <point x="52.5" y="567.6"/>
      <point x="105.6" y="569.7" type="curve" smooth="yes"/>
      <point x="143.7" y="571.2"/>
      <point x="177.9" y="552.6"/>
      <point x="207.6" y="522.9" type="curve" smooth="yes"/>
      <point x="249.6" y="480.9"/>
      <point x="261.9" y="440.4"/>
      <point x="290.4" y="302.1" type="curve"/>
      <point x="291" y="299.4" type="line"/>
      <point x="148.8" y="299.4" type="line"/>
      <point x="156" y="269.4" type="line"/>
      <point x="296.4" y="269.4" type="line"/>
      <point x="345.3" y="51.9"/>
      <point x="274.2" y="17.7"/>
      <point x="198.9" y="16.8" type="curve" smooth="yes"/>
      <point x="133.2" y="15.9"/>
      <point x="85.5" y="63"/>
      <point x="68.4" y="81.6" type="curve"/>
      <point x="49.2" y="57.6" type="line"/>
      <point x="70.5" y="36"/>
      <point x="125.1" y="-12.9"/>
      <point x="198.9" y="-13.2" type="curve" smooth="yes"/>
      <point x="245.7" y="-13.5"/>
      <point x="309.6" y="-5.4"/>
      <point x="330.9" y="82.2" type="curve"/>
      <point x="332.7" y="70.8"/>
      <point x="333.6" y="63.3"/>
      <point x="334.8" y="57.3" type="curve" smooth="yes"/>
      <point x="361.8" y="-78"/>
      <point x="400.5" y="-161.7"/>
      <point x="510" y="-162.3" type="curve" smooth="yes"/>
      <point x="573.6" y="-162.6"/>
      <point x="623.7" y="-122.7"/>
      <point x="621.9" y="-53.1" type="curve" smooth="yes"/>
      <point x="621" y="-20.7"/>
      <point x="602.1" y="3.9"/>
      <point x="570.9" y="4.5" type="curve" smooth="yes"/>
      <point x="550.2" y="4.8"/>
      <point x="521.7" y="-10.5"/>
      <point x="521.1" y="-39.6" type="curve" smooth="yes"/>
      <point x="520.2" y="-88.8"/>
      <point x="561.9" y="-100.5"/>
      <point x="584.4" y="-93.9" type="curve"/>
      <point x="572.7" y="-121.8"/>
      <point x="545.7" y="-134.4"/>
      <point x="510" y="-133.5" type="curve" smooth="yes"/>
      <point x="413.7" y="-131.1"/>
      <point x="385.2" y="-56.7"/>
      <point x="364.8" y="57.3" type="curve" smooth="yes"/>
      <point x="317.4" y="322.8"/>
      <point x="307.5" y="464.4"/>
      <point x="226.8" y="544.5" type="curve" smooth="yes"/>
      <point x="191.7" y="579.3"/>
      <point x="149.7" y="600.3"/>
    </contour>
    <contour>
      <point x="552.6" y="599.7" type="curve" smooth="yes"/>
      <point x="509.7" y="600.3"/>
      <point x="467.7" y="579.3"/>
      <point x="432.6" y="544.5" type="curve" smooth="yes"/>
      <point x="351.9" y="464.4"/>
      <point x="342.9" y="322.8"/>
      <point x="294.6" y="57.3" type="curve" smooth="yes"/>
      <point x="273.9" y="-56.7"/>
      <point x="245.7" y="-131.1"/>
      <point x="149.4" y="-133.5" type="curve" smooth="yes"/>
      <point x="113.7" y="-134.4"/>
      <point x="86.7" y="-121.8"/>
      <point x="75" y="-93.9" type="curve"/>
      <point x="97.5" y="-100.5"/>
      <point x="139.2" y="-88.8"/>
      <point x="138.3" y="-39.6" type="curve" smooth="yes"/>
      <point x="137.7" y="-10.5"/>
      <point x="109.2" y="4.8"/>
      <point x="88.5" y="4.5" type="curve" smooth="yes"/>
      <point x="57.3" y="3.9"/>
      <point x="38.4" y="-20.7"/>
      <point x="37.5" y="-53.1" type="curve" smooth="yes"/>
      <point x="35.7" y="-122.7"/>
      <point x="85.8" y="-162.6"/>
      <point x="149.4" y="-162.3" type="curve" smooth="yes"/>
      <point x="258.9" y="-161.7"/>
      <point x="297.6" y="-78"/>
      <point x="324.6" y="57.3" type="curve" smooth="yes"/>
      <point x="325.8" y="63.3"/>
      <point x="326.7" y="70.8"/>
      <point x="328.5" y="82.2" type="curve"/>
      <point x="349.8" y="-5.4"/>
      <point x="413.7" y="-13.5"/>
      <point x="460.5" y="-13.2" type="curve" smooth="yes"/>
      <point x="534.3" y="-12.9"/>
      <point x="588.9" y="36"/>
      <point x="610.2" y="57.6" type="curve"/>
      <point x="591" y="81.6" type="line"/>
      <point x="573.9" y="63"/>
      <point x="526.2" y="15.9"/>
      <point x="460.5" y="16.8" type="curve" smooth="yes"/>
      <point x="385.2" y="17.7"/>
      <point x="314.1" y="51.9"/>
      <point x="363" y="269.4" type="curve"/>
      <point x="503.4" y="269.4" type="line"/>
      <point x="510.6" y="299.4" type="line"/>
      <point x="368.4" y="299.4" type="line"/>
      <point x="369" y="302.1" type="line"/>
      <point x="397.5" y="440.4"/>
      <point x="409.8" y="480.9"/>
      <point x="451.8" y="522.9" type="curve" smooth="yes"/>
      <point x="481.5" y="552.6"/>
      <point x="515.7" y="571.2"/>
      <point x="553.8" y="569.7" type="curve" smooth="yes"/>
      <point x="606.9" y="567.6"/>
      <point x="650.7" y="529.2"/>
      <point x="652.2" y="507.3" type="curve"/>
      <point x="637.8" y="512.4"/>
      <point x="591.3" y="507"/>
      <point x="590.7" y="456.3" type="curve" smooth="yes"/>
      <point x="590.4" y="429.9"/>
      <point x="616.5" y="407.1"/>
      <point x="642.9" y="408.6" type="curve" smooth="yes"/>
      <point x="664.8" y="409.8"/>
      <point x="688.8" y="425.1"/>
      <point x="690" y="457.5" type="curve" smooth="yes"/>
      <point x="692.4" y="524.1"/>
      <point x="644.7" y="598.2"/>
    </contour>
    <contour>
      <point x="282" y="269.4" type="line"/>
      <point x="497.4" y="269.4" type="line"/>
      <point x="504.6" y="299.4" type="line"/>
      <point x="287.4" y="299.4" type="line"/>
    </contour>
    <contour>
      <point x="346.8" y="279.3" type="line"/>
      <point x="317.1" y="279.3" type="line"/>
      <point x="317.1" y="257.4" type="line"/>
      <point x="346.8" y="257.4" type="line"/>
    </contour>
  </outline>
</glyph>
<glyph name="swash2" format="1">
  <advance width="600"/>
  <outline>
    <contour>
      <point x="300" y="334.8" type="curve"/>
      <point x="330" y="334.8" type="line"/>
      <point x="347" y="415"/>
      <point x="332" y="444"/>
      <point x="288" y="442.8" type="curve" smooth="yes"/>
      <point x="267" y="442"/>
      <point x="225" y="427"/>
      <point x="175.2" y="398.4" type="curve"/>
      <point x="189.6" y="372" type="line"/>
      <point x="230" y="395"/>
      <point x="270" y="412"/>
      <point x="286.8" y="412.8" type="curve" smooth="yes"/>
      <point x="308" y="414"/>
      <point x="316" y="396"/>
    </contour>
  </outline>
</glyph>
<glyph name="underscore.001" format="1">
  <advance width="600"/>
  <note>
    underscore
  </note>
  <outline>
    <contour>
      <point x="485" y="-83" type="line"/>
      <point x="125" y="-83" type="line"/>
      <point x="125" y="-33" type="line"/>
      <point x="485" y="-33" type="line"/>
    </contour>
  </outline>
</glyph>
